<svg xmlns="http://www.w3.org/2000/svg" width="900" height="700.29"><g class="cloud-1"><path d="M302.652 174.427c-9.421 0-17.924 3.925-23.976 10.222-5.364-9.244-15.363-15.464-26.82-15.464-13.345 0-24.719 8.437-29.085 20.268a24.874 24.874 0 0 0-13.1-3.708c-6.735 0-12.843 2.668-17.339 7-4.495-4.332-10.602-7-17.337-7-.787 0-1.56.042-2.328.113.098-1.043.154-2.098.154-3.165 0-18.373-14.894-33.265-33.265-33.265-17.893 0-32.478 14.126-33.23 31.835a24.87 24.87 0 0 0-12.996-3.641 24.9 24.9 0 0 0-9.497 1.872c-.187-.117-.37-.235-.56-.35-3.603-9.377-12.69-16.039-23.338-16.039-13.807 0-25 11.193-25 25 0 .97.06 1.924.168 2.864-.14-.002-.282-.01-.426-.01-13.807 0-25 11.193-25 24.999 0 13.459 10.638 24.429 23.964 24.974v.026h269.011c18.373 0 33.268-14.894 33.268-33.266s-14.895-33.265-33.268-33.265m388.174 275.6a29.348 29.348 0 0 0 3.796-14.457c0-16.313-13.219-29.53-29.526-29.53-2.611 0-5.131.372-7.543 1.01-6.958-40.71-42.396-71.703-85.083-71.703-34.182 0-63.72 19.864-77.712 48.673a41.24 41.24 0 0 0-17.098-3.7c-10.312 0-19.737 3.782-26.98 10.026-5.083-17.1-20.91-29.578-39.66-29.578-13.662 0-25.778 6.629-33.313 16.84-14.57-13.723-34.87-22.246-57.332-22.246-27.562 0-51.874 12.824-66.33 32.354a41.175 41.175 0 0 0-23.594-7.395c-22.323 0-40.506 17.684-41.335 39.804-7.481-7.452-17.8-12.06-29.194-12.06-11.727 0-22.309 4.888-29.84 12.73-5.696-18.172-22.667-31.357-42.717-31.357-24.722 0-44.764 20.042-44.764 44.765 0 5.364.945 10.509 2.675 15.278-15.945.41-28.753 13.439-28.753 29.485 0 16.307 13.22 29.527 29.528 29.527h638.907c16.31 0 29.53-13.22 29.53-29.527 0-14.296-10.165-26.218-23.662-28.939" fill="#fff"/><path class="cloud-1" d="M415.33 99.908c0-24.61-19.948-44.555-44.555-44.555-22.057 0-40.357 16.028-43.917 37.072a21.245 21.245 0 0 0-12.74-4.219c-2.013 0-3.956.284-5.8.805-2.42-9.14-10.742-15.876-20.64-15.876a21.233 21.233 0 0 0-10.552 2.794c-4.42-8.39-13.218-14.111-23.358-14.111-12.076 0-22.25 8.115-25.386 19.186a30.869 30.869 0 0 0-20.63-7.869 30.854 30.854 0 0 0-19.436 6.859c.03-.553.045-1.109.045-1.669 0-17.117-13.879-30.995-30.998-30.995a30.843 30.843 0 0 0-16.158 4.543c-8.04-17.352-25.598-29.394-45.978-29.394-26.958 0-48.992 21.064-50.557 47.629-17.66 3.015-31.106 18.383-31.106 36.903 0 20.684 16.768 37.45 37.451 37.45h323.356v-.157c22.925-1.833 40.959-21.001 40.959-44.396" fill="#fff"/><path d="M670.783 218.353a35.127 35.127 0 0 0 4.224-16.755c0-19.496-15.804-35.301-35.3-35.301-11.565 0-21.829 5.56-28.269 14.155a26.079 26.079 0 0 0-14.307-4.253c-11.129 0-20.634 6.941-24.438 16.728-3.893-4.09-9.388-6.643-15.48-6.643-8.825 0-16.397 5.344-19.663 12.971-3.584-5.12-9.353-8.593-15.954-9.073.606-3.212.937-6.52.937-9.908 0-29.31-23.763-53.071-53.072-53.071s-53.07 23.761-53.07 53.071c0 .246.014.491.019.738a35.497 35.497 0 0 0-7.06-.71c-19.498 0-35.3 15.807-35.3 35.302 0 19.496 15.802 35.301 35.3 35.301v.183h255.448c9.34 0 16.914-7.571 16.914-16.914 0-7.232-4.544-13.404-10.929-15.821m196.291 370.352c-8.324 0-15.832 3.47-21.176 9.035-3.924-4.422-9.646-7.211-16.021-7.211-3.304 0-6.434.75-9.228 2.084-5.026-7.662-12.949-13.248-22.215-15.202a53.311 53.311 0 0 0 1.091-10.756c0-29.313-23.761-53.073-53.071-53.073-22.374 0-41.501 13.854-49.307 33.447a37.643 37.643 0 0 0-7.598-.774c-17.965 0-32.967 12.655-36.6 29.534a37.3 37.3 0 0 0-15.15-3.203c-3.465 0-6.815.481-9.997 1.361-1.39-20.06-18.093-35.907-38.507-35.907-10.707 0-20.396 4.361-27.39 11.405a52.8 52.8 0 0 0-29.158-8.736c-29.31 0-53.072 23.762-53.072 53.073 0 29.31 23.763 53.073 53.072 53.073.982 0 334.327.579 334.327.579 16.215 0 29.364-13.148 29.364-29.364 0-16.219-13.149-29.365-29.364-29.365M233.57 632.638h-.167l.135-.143.032.143zm170.483-45.775c-5.904-32.227-34.111-56.655-68.041-56.655-37.944 0-68.74 30.548-69.178 68.39a27.88 27.88 0 0 0-6.24-.708c-6.939 0-13.28 2.54-18.16 6.733-2.225-16.727-16.536-29.634-33.87-29.634-2.611 0-5.151.305-7.594.857-9.207-27.405-35.083-47.156-65.588-47.156-34.383 0-62.896 25.083-68.274 57.946-.308-.006-.614-.025-.925-.025-25.418 0-46.026 20.608-46.026 46.027 0 25.42 20.608 46.027 46.026 46.027v.238h333.065v-.238c25.419 0 46.026-20.607 46.026-46.027 0-23.797-18.062-43.372-41.221-45.775M894.77 311.817c0-17.967-14.566-32.53-32.532-32.53a32.68 32.68 0 0 0-5.796.524c.005-.176.012-.35.012-.525 0-11.886-9.634-21.521-21.519-21.521-9.913 0-18.257 6.705-20.752 15.827a21.452 21.452 0 0 0-13.054-6.69c.823-3.6 1.274-7.34 1.274-11.188 0-27.582-22.361-49.942-49.941-49.942-27.582 0-49.943 22.36-49.943 49.942 0 .475.024.942.036 1.41a32.565 32.565 0 0 0-9.492-1.41c-16.651 0-30.373 12.515-32.295 28.648a21.75 21.75 0 0 0-3.108-.227c-10.857 0-19.835 8.045-21.305 18.499a21.462 21.462 0 0 0-6.953-1.154c-11.884 0-21.52 9.632-21.52 21.519 0 11.886 9.636 21.52 21.52 21.52H864.82v-.28c16.76-1.32 29.95-15.323 29.95-32.422M757.56 59.236a27.137 27.137 0 0 0-15.132 4.585c-1.573-13.562-13.093-24.092-27.079-24.092-13.376 0-24.495 9.635-26.814 22.345-4.739-8.064-13.492-13.479-23.52-13.479-7.711 0-14.669 3.206-19.63 8.353-3.297-18.31-19.304-32.205-38.561-32.205-19.796 0-36.156 14.678-38.807 33.743a27.17 27.17 0 0 0-18.044-6.83 27.148 27.148 0 0 0-12.419 2.993C532.38 39.056 517.686 27.8 500.356 27.8c-19.552 0-35.758 14.318-38.71 33.043a27.22 27.22 0 0 0-9.235-1.608c-15.058 0-27.266 12.208-27.266 27.27 0 14.288 10.995 26.003 24.985 27.163v.102h307.43c15.059 0 27.268-12.207 27.268-27.266 0-15.061-12.209-27.269-27.268-27.269M428.036 275.334c-10.462 0-19.64 5.48-24.834 13.721a20.318 20.318 0 0 0-13.136-4.791 20.319 20.319 0 0 0-12.762 4.486c.003-.176.013-.356.013-.536 0-13.639-11.057-24.698-24.696-24.698-9.346 0-17.479 5.194-21.675 12.854a21.816 21.816 0 0 0-13.815-4.909 21.812 21.812 0 0 0-13.794 4.893c-5.462-9.013-15.36-15.037-26.67-15.037-17.21 0-31.163 13.953-31.163 31.164 0 3.288.513 6.455 1.457 9.428-6.584 2.153-11.341 8.343-11.341 15.646 0 8.685 6.725 15.794 15.249 16.415v.047h177.167c16.205 0 29.341-13.133 29.341-29.34 0-16.206-13.136-29.343-29.34-29.343m-234.754 33.444c.325-1.316.516-2.685.516-4.1 0-9.45-7.66-17.11-17.109-17.11-.925 0-1.828.094-2.715.235-.665-12.033-10.63-21.588-22.832-21.588-7.326 0-13.844 3.45-18.029 8.808-3.374-11.472-13.975-19.852-26.537-19.852-11.897 0-22.035 7.507-25.943 18.042a17.031 17.031 0 0 0-9.291-2.753c-9.449 0-17.109 7.66-17.109 17.108-15.28 0-27.664 12.385-27.664 27.664 0 14.666 11.415 26.66 25.844 27.599v.066h139.053c9.446 0 17.106-7.66 17.106-17.107 0-8.835-6.696-16.103-15.29-17.012" fill="#fff"/></g></svg>