<svg xmlns="http://www.w3.org/2000/svg" width="410" height="130.29"><path class="cloud" d="M405.43 84.28c0-24.61-19.947-44.556-44.555-44.556-22.056 0-40.356 16.03-43.916 37.073a21.245 21.245 0 0 0-12.74-4.219c-2.014 0-3.956.284-5.801.805-2.42-9.14-10.742-15.876-20.64-15.876a21.233 21.233 0 0 0-10.552 2.794c-4.42-8.39-13.217-14.112-23.357-14.112-12.076 0-22.25 8.115-25.386 19.187a30.869 30.869 0 0 0-20.63-7.87 30.854 30.854 0 0 0-19.437 6.86c.03-.553.045-1.11.045-1.67 0-17.117-13.878-30.994-30.997-30.994a30.843 30.843 0 0 0-16.159 4.542c-8.04-17.35-25.597-29.393-45.977-29.393-26.959 0-48.992 21.063-50.557 47.628C17.11 57.494 3.665 72.863 3.665 91.383c0 20.684 16.767 37.45 37.45 37.45h323.356v-.157c22.925-1.833 40.96-21.002 40.96-44.397" fill="#fff"/></svg>