<svg xmlns="http://www.w3.org/2000/svg" width="500" height="300"><path d="M298.41 241.667c-.043.024-.09.055-.132.078-6.386 3.345-11.279-.079-9.586-2.295-44.133 1.815-65.371-17.531-70.956-21.255-1.437-.958-4.124-1.641-7.49-2.113 6.047 15.574 28.938 40.558 50.617 34.1 17.2-5.123 41.404 8.67 54.29 17.332-1.305-7.26-1.999-14.923-2.15-21.954a405.202 405.202 0 0 1-14.592-3.893M235.7 165.225c4.196-7.84 11.728-21.96 14.064-26.631 1.513-3.025 8.48-9.024 16.578-14.86-9.65.21-18.065 2.992-24.609 6.195-.52 11.262-3.354 22.513-8.861 32.488.905.997 1.887 1.922 2.827 2.808m124.439-12.973c-1.316 1.317-5.084-1.793-9.145-5.587-11.035-.906-22.196-2.866-33.526-6.426-8.728-.295-16.46-.827-18.718 1.18-4.238 3.768-8.948 17.428-8.948 17.428 5.322-1.14 17.7 1.4 22.276 2.423-.033-.283-.031-.47.017-.539 1.57-2.199 6.91-3.455 8.793 0 .194.354.4.991.611 1.84 5.21 1.264 25.641 7.554 35.186 30.189a45.843 45.843 0 0 1 2.51 7.892c2.103 1.37 5.007 3.265 8.29 5.428 2.362-10.578 9.67-18.49 25.174-28.828 20.318-13.543 18.234-32.818 7.294-31.777-9.57.912-19.19 1.637-28.889 1.795-.084.086-.16.197-.249.272-4.082 3.454-7.85 1.884-10.676 4.71" fill="#cc2c29"/><path d="M360.262 212.476c3.61 11.683-.506 26.755-3.405 36.7a80.908 80.908 0 0 0 6.032 2.726c.187-.226.418-.375.703-.422 5.652-.943 17.585-5.025 18.841-11.933 1.255-6.908 16.328-9.106 23.236-6.28a17.705 17.705 0 0 0 4.913 1.253c1.076-1.474 2.55-3.09 4.377-4.199-6.783-4.081-14.84-1.125-19.652-5.061-4.494-3.676-17.86-12.62-27.823-19.18a1897.107 1897.107 0 0 0-8.29-5.428 46.77 46.77 0 0 1 1.068 11.824" fill="#5864cc"/><path d="M444.292 247.397c-3.703 4.692-25.649 8.605-37.61 11.59 8.599 4.847 23.025 7.463 31.487 6.31 10.363-1.415 34.934 9.027 38.388-.237 1.197-3.213-5.416-11.069-14.366-17.191-7.79-5.33-13.792-1.744-16.77-6 .446 1.963.143 3.917-1.13 5.528m-33.709-12.877c4.974.53 10.107-1.01 18.637-2.195 6.592-.915 12.215 2.334 14.832 6.384-3.032-7.425-18.155-9.083-23.78-9.682-2.003-.212-3.777.362-5.312 1.294-1.827 1.109-3.3 2.725-4.377 4.199" fill="#cc2c29"/><path d="M322.143 205.006c-3.744 11.544-17.094 32.998-23.732 36.661 3.167.91 8.56 2.41 14.592 3.893-.179-8.293.39-15.696 1.604-20.458 4.082-16.013 24.346-31.777 35.482-25.433 5.442 3.098 8.57 7.617 10.173 12.807a46.77 46.77 0 0 0-1.068-11.824 45.843 45.843 0 0 0-2.51-7.892c-9.545-22.635-29.976-28.925-35.186-30.189 1.845 7.431 4.026 32.009.645 42.435" fill="#ff3733"/><path d="M375.193 122.892a3.47 3.47 0 0 0-1.906.718c-3.942 3.053-7.608 7.342-10.594 12.407-2.986 5.064-4.952 10.298-5.656 15.125-.265 1.811 1.157 3.577 3.156 3.968 1.57.307 3.032-.333 3.719-1.5l5.812 3.188 1.688-2.844-6.657-3.656c.814-3.439 2.31-7.163 4.407-10.719 2.103-3.568 4.654-6.751 7.312-9.187l6.688 3.656 1.656-2.844-5.813-3.187c.687-1.166.513-2.702-.562-3.844a4.145 4.145 0 0 0-3.25-1.281z" fill="#464655"/><path d="M462.271 145.418l-40.251 68.266c-1.39 2.357-4.694 3.074-7.38 1.602l-30.811-16.881 45.283-76.8 30.81 16.881c2.687 1.472 3.739 4.576 2.35 6.932z" fill="#b56516"/><path d="M432.022 145.78l-25.157 42.666c-6.484 10.997-21.905 14.342-34.443 7.473l-16.216-8.885c-2.686-1.472-3.738-4.576-2.349-6.932l43.606-73.955c1.39-2.357 4.694-3.073 7.38-1.601l16.216 8.884c12.539 6.87 17.447 21.353 10.963 32.35z" fill="#e8821c"/><path d="M404.662 178.798c-1.747.057-3.35.902-4.22 2.375-1.389 2.356-.342 5.434 2.345 6.906 1.434.786 3.036.94 4.437.563l4.5 2.468c.896.49 2.006.254 2.469-.531l1.687-2.844c.463-.785.114-1.822-.781-2.312l-4.531-2.469c-.38-1.353-1.317-2.62-2.75-3.406a6.154 6.154 0 0 0-3.156-.75zm21.812-36.969c-1.746.058-3.382.871-4.25 2.344-1.39 2.356-.312 5.465 2.375 6.937a5.936 5.936 0 0 0 4.438.532l4.5 2.5c.895.49 2.005.254 2.468-.532l1.657-2.843c.463-.786.114-1.822-.782-2.313l-4.5-2.5c-.382-1.35-1.32-2.591-2.75-3.375a6.154 6.154 0 0 0-3.156-.75z" fill="#ffdc1f"/><path d="M343.117 139.277c2.332 2.03 5.169 4.86 7.876 7.388 4.061 3.794 7.829 6.904 9.145 5.587 2.826-2.826 6.594-1.256 10.676-4.71.09-.075.165-.186.25-.272 3.807-3.879 3.478-18.684 1.634-23.906-1.884-5.338-10.676-10.048-16.956-8.164a794.351 794.351 0 0 1-8.799 2.57c.833 7.461-2.134 17.195-3.826 21.507" fill="#fbc889"/><path d="M249.764 138.594c-2.336 4.67-9.868 18.79-14.065 26.63 2.1 1.98 3.965 3.787 4.174 5.87 1.081 10.82-11.305 24.492-18.37 20.723-3.337-1.78-6.876-4.5-9.69-6.882-9.132 5.844-20.519 9.887-34.429 11.279-25.293 2.53-40.835-7.332-50.208-18.97-7.384-.86-18.85-1.962-26.57-1.613 4.923 9.334.252 25.968-1.028 30.08 12.008 3.914 44.913 13.246 77.65 10.129 7.378-.703 23.138-1.143 33.018.242 3.366.472 6.053 1.155 7.49 2.113 5.585 3.724 26.823 23.07 70.956 21.255.055-.073.096-.148.166-.216 2.198-2.2 12.874-11.933 22.609-31.088 9.096-17.901 1.084-42.829.61-46.876-4.575-1.023-16.954-3.564-22.276-2.423 0 0 4.71-13.66 8.948-17.427 2.258-2.008 9.99-1.476 18.718-1.181 5.982.202 12.429.29 17.904-.623 4.798-8.906 3.1-25.045 3.1-25.045l.225-.074c-11.032-2.272-37.904-7.433-46.07-5.577-5.608 1.274-16.733 7.93-26.284 14.815-8.098 5.835-15.065 11.834-16.578 14.859" fill="#6e7dff"/><path d="M221.503 191.817c7.065 3.77 19.451-9.903 18.37-20.723-.209-2.083-2.075-3.89-4.174-5.87-.94-.885-1.922-1.81-2.827-2.807-4.854 8.793-11.789 16.585-21.059 22.518 2.814 2.381 6.353 5.102 9.69 6.882" fill="#f9ab62"/><path d="M117.41 137.18s-2.827-9.734 1.57-13.816c4.396-4.083 16.642-1.257 20.096 1.57 0 0-18.527.628-21.667 12.246zm26.612 2.591a6.595 6.595 0 1 1-13.19-.001 6.595 6.595 0 0 1 13.19.001zM164.51 86.94c13.816-5.967 21.038 5.966 21.038 5.966-19.782-3.14-30.145 19.469-30.145 19.469l.314-1.257s-5.024-18.212 8.793-24.178zm15.778 36.11a6.594 6.594 0 1 1 .001-13.188 6.594 6.594 0 0 1 0 13.189zm-12.706 43.738s17.444-.585 23.736-17.778c0 0 .534 20.302-23.736 17.778zm25.66-100.258c-9.463-7.394-32.97-10.363-46.159 2.355-13.189 12.717-19.782 20.723-12.717 26.847 7.065 6.124 8.478 13.189-5.653 20.725 0 0-.47-14.131-10.832-10.834-10.363 3.298-14.132 8.008-13.19 14.602.943 6.595 12.718 23.08 10.835 27.79-.187.466-.668.668-1.368.653.905 5.35 4.281 17.732 13.018 28.578 9.373 11.637 24.915 21.499 50.208 18.969 13.91-1.392 25.297-5.435 34.43-11.28 9.27-5.932 16.204-13.724 21.058-22.517 5.507-9.975 8.341-21.226 8.861-32.488a84.27 84.27 0 0 0-1.959-22.313c-11.787 13.775-31.5-29.345-46.532-41.087" fill="#fbc889"/><path d="M82.083 111.275c.425 18.25 25.699 37.255 32.075 37.392.7.015 1.181-.187 1.368-.653 1.883-4.71-9.892-21.195-10.834-27.79-.943-6.594 2.826-11.304 13.189-14.602 10.362-3.297 10.832 10.834 10.832 10.834 14.131-7.536 12.718-14.601 5.653-20.725-7.065-6.124-.472-14.13 12.717-26.847 13.189-12.718 36.696-9.75 46.159-2.355 15.031 11.742 34.745 54.862 46.532 41.087.033-.037.067-.07.1-.11 11.774-14.13 5.65-72.535-26.848-90.905-32.5-18.37-49.928-5.652-49.928-5.652-30.145-3.768-71.595 8.477-95.145 40.036-23.551 31.557-6.124 63.586.471 52.282 6.594-11.303 13.188-12.246 13.66 8.008" fill="#5a3114"/><path d="M75.22 187.323c-4.763 3.5-4.721 6.444-9.153 6.901-7.834.808-9.088-.995-12.078.262-5.453 2.294-1.975 9.365.576 10.648 3.741 1.881 8.386 2.724 12.496 2.808 6.247.127 24.09-2.561 27.238-4.793 4.232-9.258 3.337-26.566-2.394-25.146-5.731 1.42-11.921 5.82-16.684 9.32z" fill="#fbc889"/><path d="M72.602 149.31c-13.144-13.144-34.454-13.144-47.598 0-13.144 13.144-13.144 34.454 0 47.598 13.144 13.144 34.454 13.144 47.598 0 13.144-13.144 13.144-34.454 0-47.598zm-17.849 29.75a8.413 8.413 0 0 1-11.899 0 8.413 8.413 0 0 1 0-11.9 8.414 8.414 0 0 1 11.9 11.9z" fill="#5864cc"/><path d="M58.153 163.76c-5.164-5.164-13.536-5.164-18.7 0-5.163 5.164-5.163 13.536 0 18.699 5.165 5.164 13.537 5.164 18.7 0 5.164-5.164 5.164-13.535 0-18.7zm-6.8 11.899a3.606 3.606 0 1 1-5.1-5.1 3.606 3.606 0 1 1 5.1 5.1z" fill="#9ba1d4"/><path d="M58.153 182.459a13.254 13.254 0 0 1-3.01 2.247l9.805 17.935a33.654 33.654 0 0 0 13.387-13.387L60.4 179.449a13.192 13.192 0 0 1-2.247 3.01z" fill="#7383bf"/><path d="M39.454 163.76a13.254 13.254 0 0 1 3.01-2.248l-9.805-17.934a33.654 33.654 0 0 0-13.387 13.387l17.934 9.805a13.192 13.192 0 0 1 2.248-3.01z" fill="none"/><path d="M77.009 206.707c4.02-.158 22.187-22.336 14.232-30.822-2.278-2.43-6.565-6.063-11.863-9.95-4.685-3.437-16.549-2.474-22.908 5.769-12.717 16.485 1.46 27.294 5.639 28.316 4.18 1.023 10.138 6.873 14.9 6.687z" fill="#fbc889"/><path d="M177.228 118.575a2.59 2.59 0 1 1 0-5.182 2.59 2.59 0 0 1 0 5.182zm3.061-8.714a6.595 6.595 0 1 0 .002 13.19 6.595 6.595 0 0 0-.002-13.19m-45.687 32.5a2.59 2.59 0 1 1-.001-5.182 2.59 2.59 0 0 1 0 5.182zm-3.769-2.59a6.594 6.594 0 1 0 13.189 0 6.594 6.594 0 0 0-13.189 0" fill="#3e200c"/><path d="M177.228 113.394a2.591 2.591 0 1 0 0 5.182 2.591 2.591 0 0 0 0-5.182m-42.626 23.786a2.591 2.591 0 1 0 0 5.182 2.591 2.591 0 0 0 0-5.182" fill="#fff"/><path d="M155.404 112.374s10.363-22.61 30.145-19.47c0 0-7.222-11.932-21.038-5.965-13.817 5.966-8.793 24.178-8.793 24.178l-.314 1.257m-36.424 10.99c-4.397 4.082-1.57 13.816-1.57 13.816 3.14-11.618 21.666-12.246 21.666-12.246-3.454-2.827-15.7-5.653-20.097-1.57" fill="#5a3114"/><path d="M167.583 166.787c24.27 2.524 23.736-17.778 23.736-17.778-6.292 17.193-23.736 17.778-23.736 17.778" fill="#3e200c"/><path d="M100.606 175.631c-.127-.239-.25-.479-.39-.707-1.698-2.803-6.593.5-8.005 1.748-.135.12-.194.364-.197.718-.028 3.34 5.03 16.459.798 25.716-.045.098-.084.199-.131.296 0 0-.942 3.997 6.595 3.248 0 0 .115-.335.302-.939 1.28-4.112 5.951-20.746 1.028-30.08m234.764-36.015l-.038.076c-1.885 3.454 5.651 4.397 7.221.943.16-.353.355-.825.564-1.358 1.692-4.312 4.659-14.046 3.826-21.507a18.21 18.21 0 0 0-.307-1.943c-.768-3.455-6.745-1.715-7.94-1.33l-.224.074s1.697 16.139-3.101 25.045m-87.337 71.222c-4.082 3.455 14.13 7.538 24.806 6.91 10.677-.628 15.7-8.478 17.899-10.048 2.198-1.572-1.885-13.19-4.082-16.643-2.2-3.455-14.13-7.851-19.783-9.107-2.471-.55-9.394 20.896-18.84 28.888m50.244 30.907c.043-.023.089-.054.133-.078 6.638-3.663 19.988-25.117 23.732-36.66 3.381-10.427 1.2-35.005-.645-42.436-.211-.849-.417-1.486-.611-1.84-1.884-3.455-7.223-2.199-8.793 0-.048.069-.05.256-.017.539.474 4.047 8.486 28.975-.61 46.876-9.735 19.155-20.411 28.889-22.609 31.088-.07.068-.111.143-.166.216-1.693 2.216 3.2 5.64 9.586 2.295" fill="#ffdc1f"/><path d="M367.36 271.576c-2.13-3.872-4.314-10.399-4.908-14.964-2.299 2.007-5.701 4.397-7.653 3.032-.9-.632.373-4.685 2.058-10.468 2.899-9.945 7.015-25.017 3.405-36.7-1.604-5.19-4.731-9.709-10.173-12.807-11.136-6.344-31.4 9.42-35.482 25.433-1.214 4.762-1.783 12.165-1.604 20.458.151 7.031.845 14.695 2.15 21.954 2.335 12.976 6.619 24.623 13.27 28.868 13.061 8.338 40.368-10.612 46.481-15.083-2.207-1.615-5.038-5.17-7.543-9.723" fill="#6e7dff"/><path d="M429.22 232.325c-8.53 1.185-13.664 2.725-18.638 2.195a17.705 17.705 0 0 1-4.913-1.253c-6.908-2.826-21.98-.628-23.236 6.28-1.256 6.908-13.189 10.99-18.841 11.933a1.136 1.136 0 0 0-.703.422c-.637.774-.722 2.513-.437 4.71.594 4.565 2.779 11.092 4.909 14.964 2.505 4.554 5.336 8.108 7.543 9.723.837.61 1.587.953 2.19.953 2.198 0 16.957-17.898 22.61-21.038 1.207-.672 3.727-1.414 6.978-2.227 11.961-2.985 33.907-6.898 37.61-11.59 1.272-1.61 1.575-3.565 1.129-5.528-.244-1.07-.712-2.14-1.37-3.16-2.617-4.05-8.24-7.3-14.832-6.384" fill="#ff342c"/></svg>