<svg xmlns="http://www.w3.org/2000/svg" width="900.78" height="300"><path d="M414.39 180.935l7.297-.544 12.822-7.926 14.22-1.855 14.084 5.016 47.593 77.143H370.942l43.447-71.834" fill="#6c4e53"/><path d="M439.983 138.621l31.544 51.205-14.231-8.682-9.387 9.386-13.4-12.543-12.767 14.435-7.353-11.487 25.594-42.314" fill="#f0f1f0"/><path d="M746.89 153.435l7.297-.544 12.822-7.926 14.22-1.855 14.083 5.016 47.592 77.143H703.441l43.448-71.834" fill="#6c4e53"/><path d="M772.483 111.121l31.543 51.205-14.232-8.682-9.386 9.386-13.399-12.543-12.768 14.435-7.352-11.487 25.594-42.314" fill="#f0f1f0"/><path d="M165.866 156.596l9.855-.735 17.315-10.704 19.2-2.503 19.021 6.773 64.269 104.175H107.192l58.674-97.006" fill="#76555c"/><path d="M200.427 99.455l42.597 69.147-19.218-11.725-12.677 12.678-18.093-16.939-17.243 19.493-9.927-15.513 34.561-57.141" fill="#fff"/><path d="M343.973 181.769l7.298-.544 12.822-7.926 14.219-1.855 14.084 5.016 47.593 77.142H300.526l43.447-71.833" fill="#76555c"/><path d="M369.567 139.455l31.544 51.205-14.232-8.683-9.387 9.387-13.399-12.543-12.767 14.435-7.353-11.487 25.594-42.314" fill="#fff"/><path d="M490.462 171.389l8.351-.623 14.674-9.07 16.274-2.124 16.12 5.742 54.468 88.288H440.734l49.728-82.213" fill="#76555c"/><path d="M519.752 122.961l36.102 58.603-16.287-9.937-10.745 10.744-15.335-14.355-14.611 16.52-8.414-13.147 29.29-48.428" fill="#fff"/><path d="M118.486 188.575l-6.608-.494-11.607-7.175-12.872-1.68-12.75 4.543-43.083 69.833h126.25l-39.33-65.027" fill="#835e64"/><path d="M95.316 150.269l-20.667 33.5 13.493 13.492 12.129-11.355 11.558 13.066 6.657-10.397-23.17-38.306" fill="#fff"/><path d="M330.67 176.34l-7.85-.584-13.792-8.525-15.291-1.995-15.149 5.395-51.189 82.971h150l-46.73-77.262" fill="#835e64"/><path d="M303.142 130.83l-24.554 39.801 16.03 16.031 14.41-13.49 13.733 15.524 7.908-12.356-27.527-45.51" fill="#fff"/><path d="M663.99 156.596l9.856-.735 17.315-10.704 19.201-2.503 19.02 6.773 64.269 104.175H605.318l58.673-97.006" fill="#76555c"/><path d="M698.552 99.455l42.599 69.147-19.219-11.725-12.678 12.678-18.093-16.939-17.242 19.493-9.928-15.513 34.561-57.141" fill="#f0f1f0"/><path d="M846.294 176.34l-7.848-.584-13.792-8.525-15.292-1.995-15.149 5.395-51.189 82.971h150l-46.73-77.262" fill="#835e64"/><path d="M818.768 130.83l-24.555 39.801 16.03 16.031 14.411-13.49 13.733 15.524 7.907-12.356-27.526-45.51" fill="#fff"/><path d="M644.793 162.966l-9.206-.685-16.179-10-17.94-2.341-17.771 6.331-60.048 97.331h175.964l-54.82-90.636" fill="#835e64"/><path d="M612.503 109.58l-28.806 46.691 18.805 18.804 16.906-15.825 16.11 18.211 9.275-14.495-32.29-53.386" fill="#fff"/><path d="M893.678 270.094l-875.541-.874-.024-31.889 875.669-.259-.104 33.022" fill="#faee9f"/><path d="M18.112 281.704h875.58V249.83H18.112v31.873z" fill="#46b9ce"/><path d="M552.9 254.679l9.772 15.595h22.361l.264-15.595h-32.398" fill="#324248"/><path d="M619.688 254.679h-34.655v15.595h21.785l12.87-15.595" fill="#324248"/><path d="M557.684 252.822h27.313v-46.575c-23.459 17.06-27.313 46.575-27.313 46.575" fill="#f4f7f0"/><path d="M586.923 212.184v40.447h23.72s-3.347-25.634-23.72-40.447" fill="#ebede7"/><path d="M554.717 257.58l1.76 2.809h28.82v-2.81h-30.58" fill="#f3f3f3"/><path d="M617.31 257.58h-32.277v2.809h29.944l2.334-2.81" fill="#ebede7"/><path d="M391.37 232.41c0-1.79-.977-3.35-2.427-4.183a4.3 4.3 0 0 0 .016-.338 4.822 4.822 0 0 0-4.822-4.823 4.8 4.8 0 0 0-2.109.489 4.813 4.813 0 1 0-8.816-1.291 4.801 4.801 0 0 0-2.943-1.008 4.822 4.822 0 0 0-4.483 6.593 4.822 4.822 0 0 0 1.018 9.536l.15-.008v.008h19.897c3.76 0 4.52-2.413 4.52-4.975" fill="#8fae45"/><path d="M372.756 232.41a4.82 4.82 0 0 0-2.429-4.183c.009-.11.017-.223.017-.338a4.823 4.823 0 0 0-4.823-4.823c-.757 0-1.469.178-2.107.489a4.815 4.815 0 1 0-8.819-1.291 4.794 4.794 0 0 0-2.94-1.008 4.824 4.824 0 0 0-4.823 4.825c0 .624.122 1.219.339 1.768a4.823 4.823 0 0 0 1.017 9.536l.151-.008v.008h19.895c3.76 0 4.522-2.413 4.522-4.975" fill="#9fc04c"/><path d="M489.993 232.425a4.753 4.753 0 0 0-2.396-4.128l.016-.332a4.76 4.76 0 0 0-4.757-4.76c-.748 0-1.452.177-2.079.484a4.76 4.76 0 0 0-4.614-3.607 4.75 4.75 0 0 0-4.086 2.332 4.738 4.738 0 0 0-2.903-.993 4.758 4.758 0 0 0-4.425 6.503 4.758 4.758 0 0 0 1.005 9.408l.15-.007v.007h19.628c3.71 0 4.461-2.38 4.461-4.907m159.687-.313a4.753 4.753 0 0 0-2.396-4.127l.017-.333a4.76 4.76 0 0 0-4.758-4.76c-.747 0-1.451.178-2.079.484a4.76 4.76 0 0 0-4.613-3.606 4.75 4.75 0 0 0-4.087 2.331 4.738 4.738 0 0 0-2.902-.992 4.758 4.758 0 0 0-4.425 6.502 4.758 4.758 0 0 0 1.005 9.409l.149-.008v.008h19.628c3.71 0 4.462-2.38 4.462-4.908" fill="#8fae45"/><path d="M547.83 232.321a4.75 4.75 0 0 0-2.396-4.127l.018-.333a4.76 4.76 0 0 0-4.759-4.76c-.747 0-1.45.178-2.079.484a4.751 4.751 0 1 0-8.7-1.275 4.732 4.732 0 0 0-2.9-.993 4.758 4.758 0 0 0-4.426 6.503 4.758 4.758 0 0 0 1.004 9.409l.15-.008v.008h19.629c3.708 0 4.46-2.38 4.46-4.908m149.687-.312a4.75 4.75 0 0 0-2.396-4.128l.017-.332a4.76 4.76 0 0 0-4.758-4.76c-.748 0-1.45.177-2.079.483a4.751 4.751 0 1 0-8.7-1.275 4.732 4.732 0 0 0-2.901-.992 4.758 4.758 0 0 0-4.425 6.502 4.758 4.758 0 0 0 1.003 9.41l.15-.008v.007h19.63c3.708 0 4.46-2.38 4.46-4.907m36.249.312a4.75 4.75 0 0 0-2.396-4.127l.017-.333a4.76 4.76 0 0 0-4.758-4.76c-.748 0-1.45.178-2.079.484a4.751 4.751 0 1 0-8.7-1.275 4.732 4.732 0 0 0-2.901-.993 4.758 4.758 0 0 0-4.425 6.503 4.758 4.758 0 0 0 1.003 9.409l.15-.008v.008h19.63c3.708 0 4.46-2.38 4.46-4.908m37.811 0a4.75 4.75 0 0 0-2.396-4.127l.018-.333a4.76 4.76 0 0 0-4.759-4.76c-.747 0-1.45.178-2.079.484a4.751 4.751 0 1 0-8.7-1.275 4.732 4.732 0 0 0-2.9-.993 4.758 4.758 0 0 0-4.426 6.503 4.758 4.758 0 0 0 1.004 9.409l.15-.008v.008h19.629c3.708 0 4.46-2.38 4.46-4.908m51.457.209a4.75 4.75 0 0 0-2.396-4.128l.017-.332a4.76 4.76 0 0 0-4.758-4.76 4.72 4.72 0 0 0-2.079.484 4.751 4.751 0 1 0-8.7-1.275 4.732 4.732 0 0 0-2.901-.993 4.758 4.758 0 0 0-4.425 6.503 4.758 4.758 0 0 0 1.003 9.408l.15-.007v.007h19.63c3.708 0 4.46-2.38 4.46-4.907m28.958 10.209a4.75 4.75 0 0 0-2.396-4.128l.017-.332a4.76 4.76 0 0 0-4.759-4.76c-.747 0-1.45.177-2.078.483a4.751 4.751 0 1 0-8.7-1.275 4.732 4.732 0 0 0-2.902-.992 4.758 4.758 0 0 0-4.425 6.502 4.758 4.758 0 0 0 1.004 9.41l.15-.008v.007h19.629c3.709 0 4.46-2.38 4.46-4.907m28.541-6.25a4.75 4.75 0 0 0-2.396-4.128l.017-.332a4.76 4.76 0 0 0-4.758-4.76c-.748 0-1.45.177-2.079.483a4.751 4.751 0 1 0-8.7-1.275 4.732 4.732 0 0 0-2.901-.992 4.758 4.758 0 0 0-4.425 6.502 4.758 4.758 0 0 0 1.003 9.41l.15-.008v.007h19.63c3.708 0 4.46-2.38 4.46-4.907" fill="#9fc04c"/><path d="M896.163 240.03a4.75 4.75 0 0 0-2.396-4.128l.017-.332a4.76 4.76 0 0 0-4.758-4.76 4.72 4.72 0 0 0-2.079.484 4.751 4.751 0 1 0-8.7-1.275 4.732 4.732 0 0 0-2.901-.993 4.758 4.758 0 0 0-4.425 6.503 4.758 4.758 0 0 0 1.003 9.408l.15-.007v.007h19.63c3.708 0 4.46-2.38 4.46-4.907M510.8 232.477a4.75 4.75 0 0 0-2.397-4.127l.018-.333a4.76 4.76 0 0 0-4.759-4.76c-.748 0-1.45.178-2.079.484a4.751 4.751 0 1 0-8.7-1.275 4.732 4.732 0 0 0-2.901-.992 4.758 4.758 0 0 0-4.425 6.502 4.758 4.758 0 0 0 1.004 9.409l.15-.008v.008h19.628c3.71 0 4.46-2.38 4.46-4.908" fill="#9fc04c"/><path d="M76.524 249.936h17.94l2.728-13.649-8.699-10.037-7.459 3.544-11.19 1.118 3.543 11.75 3.137 7.274m58.949-.166h17.939l.075-11.711-4.329-7.994-9.175-.436-11.307 5.265 3.661 7.602 3.136 7.274" fill="#c8c081"/><path d="M38.84 249.936h7.857l.21-5.144-1.603-3.428-5.37-2.06-2.402 2.287.799 3.544.51 4.801" fill="#e0d68f"/><path d="M55.766 249.936h7.856l.209-5.144 1.336-4.408-5.373-2.06-5.336 3.267.799 3.544.509 4.801m-24.08-.251h7.856l.209-5.143 1.337-4.408-7.097-2.75-5.625 3.75 2.812 3.75.508 4.8" fill="#c8c081"/><path d="M109.248 249.936h9.264l.245-2.436-1.886-1.625-6.337-.976-2.83 1.085.944 1.677.6 2.275m40.34-.166h9.263l.247-2.436-1.889-1.627-5.178-1.987-3.042 3.776.6 2.274m-88.076.166h17.37l2.643-13.216-4.629-8.274-11.016-1.261-5.779 6.5-1.985 5.302 3.396 10.95m65.277-.167h17.37l-1.163-6.218-1.166-7.158-7.327-3.498-9.125.621-1.698 6.54 3.11 9.713m-34.111.166h12.82l.34-8.392-2.612-5.597-8.764-3.356-3.918 3.73 1.306 5.781.829 7.834" fill="#e0d68f"/><path d="M807.358 249.727h17.939l2.73-13.648-8.699-10.038-7.46 3.544-7.147 3.842-.5 9.025 3.137 7.275m58.95-.166h17.938l.075-11.711-4.328-7.994-9.175-.436-11.309 5.265 3.663 7.602 3.136 7.274" fill="#c8c081"/><path d="M840.083 249.727h9.263l.245-2.436-1.887-1.625-6.335-.976-2.83 1.085.943 1.677.601 2.275m40.339-.166h9.262l.248-2.436-1.888-1.626-5.18-1.988-3.04 3.776.598 2.274m-82.082.208h9.262l.247-2.437-1.887-1.626-5.18-1.987-3.041 3.776.598 2.274m59.285-.208h17.37l-1.163-6.217-1.165-7.16-7.328-3.497-9.125.622-1.699 6.538 3.11 9.714m-34.11.166h12.82l.34-8.392-2.612-5.596-8.764-3.357-3.919 3.73 1.307 5.782.828 7.833" fill="#e0d68f"/><path d="M389.894 249.765h3.192v-13.212h-3.192v13.212zm14.129.052h3.192v-13.211h-3.192v13.211zm14.127-.106h3.194v-13.21h-3.193v13.21zm14.13.12h3.19v-13.213h-3.19v13.213z" fill="#9d6a48"/><path d="M389.894 235.186h45.623v-24.502h-45.623v24.502z" fill="#fbcf57"/><path d="M396.934 229.201H408.2v-11.547h-11.266V229.2z" fill="#fff"/><path d="M397.357 228.779h10.42v-10.702h-10.42v10.702zm11.266.846h-12.111v-12.393h12.111v12.393" fill="#e78835"/><path d="M417.212 229.201h11.265v-11.547h-11.265V229.2z" fill="#fff"/><path d="M417.634 228.779h10.42v-10.702h-10.42v10.702zm11.265.846h-12.11v-12.393h12.11v12.393" fill="#e78835"/><path d="M389.894 237.72h45.623v-3.38h-45.623v3.38z" fill="#955e41"/><path d="M412.704 191.182l-25.556 19.433h51.111l-25.555-19.433" fill="#9d6a48"/><path d="M387.174 213.407h51.137v-2.816h-51.137v2.816z" fill="#955e41"/><path d="M639.06 250.181h3.192v-13.21h-3.191v13.21zm14.13.053h3.19v-13.212h-3.19v13.212zm14.128-.107h3.192v-13.21h-3.192v13.21zm14.129.12h3.19v-13.212h-3.19v13.212z" fill="#9d6a48"/><path d="M639.06 235.602h45.623V211.1h-45.622v24.502z" fill="#fbcf57"/><path d="M646.102 229.617h11.265v-11.546h-11.265v11.546z" fill="#fff"/><path d="M646.524 229.195h10.42v-10.701h-10.42v10.7zm11.265.846h-12.11V217.65h12.11v12.392" fill="#e78835"/><path d="M666.378 229.617h11.265v-11.546h-11.265v11.546z" fill="#fff"/><path d="M666.8 229.195h10.42v-10.701H666.8v10.7zm11.266.846h-12.11V217.65h12.11v12.392" fill="#e78835"/><path d="M639.06 238.136h45.623v-3.378h-45.622v3.378z" fill="#955e41"/><path d="M661.87 191.599l-25.556 19.432h51.112L661.87 191.6" fill="#9d6a48"/><path d="M636.34 213.824h51.137v-2.816h-51.136v2.816z" fill="#955e41"/><path d="M717.878 250.247h3.192v-13.212h-3.192v13.212zm14.129.053h3.191v-13.213h-3.191V250.3zm14.129-.106h3.19v-13.212h-3.19v13.212zm14.127.118h3.191v-13.21h-3.19v13.21z" fill="#9d6a48"/><path d="M717.878 235.669h45.623v-24.503h-45.623v24.503z" fill="#fbcf57"/><path d="M724.92 229.684h11.264v-11.548H724.92v11.548z" fill="#fff"/><path d="M725.342 229.261h10.42V218.56h-10.42v10.701zm11.265.845h-12.11v-12.392h12.11v12.392" fill="#e78835"/><path d="M745.196 229.684h11.263v-11.548h-11.263v11.548z" fill="#fff"/><path d="M745.618 229.261h10.419V218.56h-10.419v10.701zm11.264.845h-12.109v-12.392h12.109v12.392" fill="#e78835"/><path d="M717.878 238.202h45.623v-3.379h-45.623v3.38z" fill="#955e41"/><path d="M740.688 191.665l-25.556 19.431h51.111l-25.555-19.431" fill="#9d6a48"/><path d="M715.157 213.89h51.138v-2.817h-51.138v2.817z" fill="#955e41"/><path d="M253.168 203.609l-.151.03c-2.195.65-10.143 14.698-10.143 21.046 0 6.495 4.28 11.762 9.56 11.762.195 0 .39-.01.583-.025 5.005-.37 8.972-5.485 8.972-11.737 0-6.498-6.86-21.076-8.82-21.076" fill="#8fae45"/><path d="M242.048 202.88l-.177.036c-2.585.765-11.943 17.309-11.943 24.783 0 7.65 5.039 13.852 11.255 13.852.23 0 .46-.011.688-.029 5.895-.437 10.567-6.458 10.567-13.823 0-7.65-8.081-24.82-10.39-24.82m-21.085 7.865l-.134.028c-1.947.575-9 13.042-9 18.673 0 5.765 3.797 10.44 8.482 10.44.173 0 .347-.009.518-.021 4.442-.332 7.963-4.868 7.963-10.42 0-5.763-6.089-18.7-7.829-18.7" fill="#9fc04c"/><path d="M260.614 205.209l-.16.033c-2.347.693-10.838 15.707-10.838 22.488 0 6.942 4.572 12.571 10.213 12.571.21 0 .418-.01.625-.026 5.348-.398 9.588-5.86 9.588-12.545 0-6.943-7.334-22.521-9.428-22.521" fill="#9fc04c"/><path d="M207.066 256.761l9.772 15.595h22.363l.262-15.595h-32.397" fill="#324248"/><path d="M273.856 256.761H239.2v15.595h21.785l12.87-15.595" fill="#324248"/><path d="M211.85 254.905h27.313V208.33c-23.459 17.058-27.312 46.574-27.312 46.574" fill="#fff"/><path d="M241.09 214.266v40.448h23.72s-3.348-25.634-23.72-40.448" fill="#f0f1f0"/><path d="M208.883 259.662l1.76 2.81h28.82v-2.81h-30.58" fill="#f3f3f3"/><path d="M271.477 259.662h-32.276v2.81h29.942l2.334-2.81" fill="#ebede7"/><path d="M871.347 40.751c-.294.045-.545.121-.819.18.39-.08.793-.151 1.221-.207-.138.015-.262.006-.402.027m-2.085.521c.233-.075.454-.155.701-.216-.243.064-.474.14-.7.216" fill="#9bd040"/></svg>