<svg
   xmlns:osb="http://www.openswatchbook.org/uri/2009/osb"
   xmlns:dc="http://purl.org/dc/elements/1.1/"
   xmlns:cc="http://creativecommons.org/ns#"
   xmlns:rdf="http://www.w3.org/1999/02/22-rdf-syntax-ns#"
   xmlns:svg="http://www.w3.org/2000/svg"
   xmlns="http://www.w3.org/2000/svg"
   xmlns:xlink="http://www.w3.org/1999/xlink"
   xmlns:sodipodi="http://sodipodi.sourceforge.net/DTD/sodipodi-0.dtd"
   xmlns:inkscape="http://www.inkscape.org/namespaces/inkscape"
   id="svg4085"
   version="1.1"
   inkscape:version="0.48.4 r9939"
   width="900"
   height="700.28998"
   xml:space="preserve"><g
     id="g4093"
     inkscape:groupmode="layer"
     inkscape:label="ink_ext_XXXXXX"
     transform="matrix(1.25,0,0,-1.25,0,700.29006)"><g
       id="g4095"
       transform="scale(0.1,0.1)"><g class="cloud-1"
         transform="translate(-18314.416,847.92428)"
         id="asd"
         inkscape:label="#g7668"><path
           inkscape:connector-curvature="0"
           d="m 20735.633,3358.9827 c -75.37,0 -143.39,-31.4 -191.81,-81.78 -42.91,73.95 -122.9,123.71 -214.56,123.71 -106.76,0 -197.75,-67.49 -232.68,-162.14 -30.49,18.8 -66.37,29.66 -104.8,29.66 -53.88,0 -102.74,-21.34 -138.71,-56 -35.96,34.66 -84.82,56 -138.7,56 -6.29,0 -12.48,-0.33 -18.62,-0.9 0.78,8.34 1.23,16.78 1.23,25.32 0,146.98 -119.15,266.12 -266.12,266.12 -143.14,0 -259.82,-113.01 -265.84,-254.68 -30.29,18.48 -65.88,29.13 -103.97,29.13 -26.89,0 -52.54,-5.34 -75.97,-14.98 -1.5,0.94 -2.96,1.88 -4.49,2.8 -28.82,75.02 -101.52,128.31 -186.7,128.31 -110.45,0 -199.99,-89.54 -199.99,-200 0,-7.75 0.48,-15.39 1.34,-22.91 -1.13,0.02 -2.26,0.08 -3.41,0.08 -110.46,0 -200,-89.54 -200,-199.99 0,-107.67 85.1,-195.43 191.71,-199.79 l 0,-0.21 2152.09,0 c 146.98,0 266.14,119.15 266.14,266.13 0,146.97 -119.16,266.12 -266.14,266.12"
           style="fill:#ffffff;fill-opacity:1;fill-rule:nonzero;stroke:none"
           id="cloud_3"
           inkscape:label="#path7496" /><path
           inkscape:connector-curvature="0"
           d="m 23841.023,1154.18 c 19.28,34.21 30.37,73.62 30.37,115.66 0,130.5 -105.75,236.24 -236.21,236.24 -20.89,0 -41.05,-2.98 -60.34,-8.09 -55.67,325.69 -339.17,573.63 -680.67,573.63 -273.45,0 -509.76,-158.91 -621.69,-389.38 -41.7,18.94 -87.99,29.59 -136.79,29.59 -82.49,0 -157.89,-30.25 -215.84,-80.2 -40.66,136.8 -167.28,236.62 -317.28,236.62 -109.29,0 -206.22,-53.03 -266.5,-134.72 -116.56,109.79 -278.96,177.97 -458.66,177.97 -220.49,0 -414.99,-102.59 -530.64,-258.83 -53.56,37.25 -118.57,59.16 -188.75,59.16 -178.58,0 -324.05,-141.47 -330.68,-318.43 -59.85,59.61 -142.4,96.48 -233.55,96.48 -93.82,0 -178.47,-39.11 -238.72,-101.84 -45.57,145.37 -181.34,250.85 -341.74,250.85 -197.77,0 -358.11,-160.33 -358.11,-358.12 0,-42.91 7.56,-84.07 21.4,-122.22 -127.56,-3.28 -230.02,-107.51 -230.02,-235.88005 0,-130.46 105.76,-236.22 236.22,-236.22 6.36,0 5078.01,0 5111.26,0 130.48,0 236.24,105.76 236.24,236.22 0,114.37005 -81.32,209.74005 -189.3,231.51005"
           style="fill:#ffffff;fill-opacity:1;fill-rule:nonzero;stroke:none"
           id="cloud_8"
           inkscape:label="#path7498" /><path class="cloud-1"
           inkscape:connector-curvature="0"
           d="m 21637.053,3955.1356 c 0,196.87 -159.58,356.44 -356.44,356.44 -176.45,0 -322.85,-128.23 -351.33,-296.58 -28.46,21.21 -63.73,33.75 -101.92,33.75 -16.11,0 -31.65,-2.27 -46.41,-6.44 -19.35,73.12 -85.93,127.01 -165.11,127.01 -30.71,0 -59.53,-8.15 -84.42,-22.35 -35.36,67.12 -105.74,112.89 -186.86,112.89 -96.61,0 -178,-64.92 -203.09,-153.49 -43.84,39.14 -101.64,62.95 -165.04,62.95 -58.89,0 -112.96,-20.57 -155.49,-54.87 0.24,4.42 0.36,8.87 0.36,13.35 0,136.94 -111.03,247.96 -247.98,247.96 -47.36,0 -91.63,-13.29 -129.27,-36.34 -64.32,138.81 -204.78,235.15 -367.82,235.15 -215.665,0 -391.934,-168.51 -404.454,-381.03 -141.281,-24.12 -248.848,-147.07 -248.848,-295.23 0,-165.47 134.141,-299.6 299.606,-299.6 2.523,0 2586.846,0 2586.846,0 l 0,1.26 c 183.4,14.66 327.67,168.01 327.67,355.17"
           style="fill:#ffffff;fill-opacity:1;fill-rule:nonzero;stroke:none"
           id="cloud_1" /><path
           inkscape:connector-curvature="0"
           d="m 23680.683,3007.5733 c 21.56,39.89 33.79,85.53 33.79,134.04 0,155.97 -126.43,282.41 -282.4,282.41 -92.52,0 -174.63,-44.48 -226.15,-113.24 -32.91,21.49 -72.21,34.02 -114.46,34.02 -89.03,0 -165.07,-55.53 -195.5,-133.82 -31.15,32.72 -75.11,53.14 -123.85,53.14 -70.59,0 -131.17,-42.75 -157.3,-103.77 -28.67,40.96 -74.82,68.75 -127.63,72.59 4.85,25.69 7.5,52.15 7.5,79.26 0,234.48 -190.11,424.57 -424.58,424.57 -234.47,0 -424.56,-190.09 -424.56,-424.57 0,-1.97 0.11,-3.93 0.15,-5.9 -18.24,3.7 -37.14,5.67 -56.48,5.67 -155.98,0 -282.4,-126.45 -282.4,-282.41 0,-155.97 126.42,-282.41 282.4,-282.41 l 0,-1.46 2043.59,0 c 74.72,0 135.31,60.57 135.31,135.31 0,57.86 -36.35,107.23 -87.43,126.57"
           style="fill:#ffffff;fill-opacity:1;fill-rule:nonzero;stroke:none"
           id="cloud_4"
           inkscape:label="#path7502" /><path
           inkscape:connector-curvature="0"
           d="m 25251.008,44.757547 c -66.59,0 -126.66,-27.762 -169.41,-72.281 -31.39,35.3780005 -77.17,57.691 -128.17,57.691 -26.43,0 -51.47,-6 -73.82,-16.672 -40.21,61.2929 -103.59,105.980903 -177.72,121.610903 5.72,27.8 8.73,56.56 8.73,86.05 0,234.5001 -190.09,424.5801 -424.57,424.5801 -178.99,0 -332.01,-110.83 -394.46,-267.57 -19.62,4.04 -39.95,6.19 -60.78,6.19 -143.72,0 -263.74,-101.24 -292.8,-236.2701 -37.06,16.42 -78.04,25.62 -121.2,25.62 -27.72,0 -54.52,-3.85 -79.98,-10.89 -11.11,160.4901 -144.74,287.2601 -308.05,287.2601 -85.66,0 -163.17,-34.89 -219.12,-91.24 -66.95,44.13 -147.08,69.89 -233.27,69.89 -234.471,0 -424.573,-190.1001 -424.573,-424.5900025 0,-234.4809975 190.102,-424.5779975 424.573,-424.5779975 7.86,0 2674.62,-4.633 2674.62,-4.633 129.72,0 234.91,105.183 234.91,234.91 0,129.749997 -105.19,234.921997 -234.91,234.921997"
           style="fill:#ffffff;fill-opacity:1;fill-rule:nonzero;stroke:none"
           id="cloud_10"
           inkscape:label="#path7504" /><path
           inkscape:connector-curvature="0"
           d="m 20182.98,-306.70465 -1.34,0 c 0.35,0.37 0.72,0.76 1.08,1.14 0.09,-0.38 0.17,-0.77 0.26,-1.14 z m 1363.86,366.199997 c -47.23,257.810003 -272.89,453.240003 -544.33,453.240003 -303.55,0 -549.92,-244.39 -553.42,-547.120003 -16.05,3.68 -32.74,5.66 -49.92,5.66 -55.51,0 -106.24,-20.32 -145.28,-53.86 -17.8,133.81 -132.29,237.070003 -270.96,237.070003 -20.89,0 -41.21,-2.44 -60.75,-6.86 -73.66,219.24 -280.67,377.25 -524.71,377.25 -275.06,0 -503.165,-200.66 -546.192,-463.570003 -2.461,0.05 -4.91,0.2 -7.395,0.2 -203.344,0 -368.207,-164.859997 -368.207,-368.209997 0,-203.36 164.863,-368.22 368.207,-368.22 l 0,-1.9 2664.517,0 0,1.9 c 203.35,0 368.21,164.86 368.21,368.22 0,190.37 -144.5,346.969997 -329.77,366.199997"
           style="fill:#ffffff;fill-opacity:1;fill-rule:nonzero;stroke:none"
           id="cloud_9"
           inkscape:label="#path7506" /><path
           inkscape:connector-curvature="0"
           d="m 25472.579,2259.8568 c 0,143.742 -116.53,260.25 -260.26,260.25 -15.83,0 -31.32,-1.49 -46.37,-4.2 0.04,1.41 0.1,2.8 0.1,4.2 0,95.09 -77.07,172.17 -172.15,172.17 -79.31,0 -146.06,-53.64 -166.02,-126.62 -26.82,28.82 -63.38,48.39 -104.43,53.52 6.58,28.8 10.19,58.72 10.19,89.51 0,220.65 -178.89,399.53 -399.53,399.53 -220.65,0 -399.54,-178.88 -399.54,-399.53 0,-3.8 0.19,-7.54 0.29,-11.29 -24.04,7.31 -49.51,11.29 -75.94,11.29 -133.21,0 -242.98,-100.12 -258.36,-229.19 -8.11,1.17 -16.41,1.82 -24.86,1.82 -86.86,0 -158.68,-64.36 -170.44,-147.991 -17.44,5.961 -36.15,9.23 -55.63,9.23 -95.07,0 -172.16,-77.059 -172.16,-172.148 0,-95.09 77.09,-172.161 172.16,-172.161 l 1883.35,0 0,2.239 c 134.07,10.551 239.6,122.582 239.6,259.371"
           style="fill:#ffffff;fill-opacity:1;fill-rule:nonzero;stroke:none"
           id="cloud_7"
           inkscape:label="#path7508" /><path
           inkscape:connector-curvature="0"
           d="m 24374.898,4280.5055 c -44.78,0 -86.42,-13.52 -121.06,-36.68 -12.58,108.5 -104.74,192.74 -216.63,192.74 -107.01,0 -195.96,-77.08 -214.51,-178.76 -37.91,64.51 -107.94,107.83 -188.16,107.83 -61.69,0 -117.35,-25.65 -157.04,-66.82 -26.38,146.48 -154.43,257.64 -308.49,257.64 -158.37,0 -289.25,-117.43 -310.46,-269.95 -38.48,33.98 -89,54.65 -144.35,54.65 -35.81,0 -69.55,-8.68 -99.35,-23.95 -41.39,124.74 -158.94,214.78 -297.58,214.78 -156.42,0 -286.07,-114.54 -309.69,-264.34 -23.07,8.3 -47.93,12.86 -73.87,12.86 -120.47,0 -218.13,-97.66 -218.13,-218.15 0,-114.31 87.96,-208.03 199.88,-217.31 l 0,-0.82 2459.44,0 c 120.47,0 218.14,97.66 218.14,218.13 0,120.49 -97.67,218.15 -218.14,218.15"
           style="fill:#ffffff;fill-opacity:1;fill-rule:nonzero;stroke:none"
           id="cloud_2"
           inkscape:label="#path7510" /><path
           inkscape:connector-curvature="0"
           d="m 21738.706,2551.7264 c -83.7,0 -157.12,-43.84 -198.67,-109.77 -28.4,23.92 -65.05,38.33 -105.09,38.33 -38.65,0 -74.14,-13.45 -102.1,-35.89 0.03,1.41 0.11,2.85 0.11,4.29 0,109.11 -88.46,197.58 -197.57,197.58 -74.77,0 -139.83,-41.55 -173.4,-102.83 -30.15,24.53 -68.61,39.27 -110.52,39.27 -41.82,0 -80.22,-14.68 -110.35,-39.14 -43.7,72.1 -122.89,120.29 -213.36,120.29 -137.69,0 -249.31,-111.62 -249.31,-249.31 0,-26.3 4.11,-51.64 11.66,-75.42 -52.67,-17.23 -90.73,-66.75 -90.73,-125.17 0,-69.48 53.8,-126.35 121.99,-131.32 l 0,-0.38 1417.34,0 c 129.64,0 234.73,105.07 234.73,234.72 0,129.65 -105.09,234.75 -234.73,234.75"
           style="fill:#ffffff;fill-opacity:1;fill-rule:nonzero;stroke:none"
           id="cloud_6"
           inkscape:label="#path7512" /><path
           inkscape:connector-curvature="0"
           d="m 19860.68,2284.1697 c 2.6,10.53 4.13,21.48 4.13,32.81 0,75.59 -61.28,136.87 -136.87,136.87 -7.4,0 -14.63,-0.75 -21.72,-1.88 -5.32,96.27 -85.05,172.71 -182.66,172.71 -58.61,0 -110.75,-27.6 -144.23,-70.47 -26.99,91.78 -111.8,158.82 -212.3,158.82 -95.17,0 -176.28,-60.06 -207.54,-144.34 -21.43,13.88 -46.91,22.03 -74.33,22.03 -75.59,0 -136.87,-61.28 -136.87,-136.87 -122.242,0 -221.313,-99.08 -221.313,-221.31 0,-117.33 91.317,-213.28 206.753,-220.79 l 0,-0.53 1112.42,0 c 75.57,0 136.85,61.28 136.85,136.86 0,70.68 -53.57,128.82 -122.32,136.09"
           style="fill:#ffffff;fill-opacity:1;fill-rule:nonzero;stroke:none"
           id="cloud_5" /></g></g></g></svg>