<?xml version="1.0" encoding="UTF-8" standalone="no"?>
<!-- Created with Inkscape (http://www.inkscape.org/) -->

<svg
   xmlns:dc="http://purl.org/dc/elements/1.1/"
   xmlns:cc="http://creativecommons.org/ns#"
   xmlns:rdf="http://www.w3.org/1999/02/22-rdf-syntax-ns#"
   xmlns:svg="http://www.w3.org/2000/svg"
   xmlns="http://www.w3.org/2000/svg"
   xmlns:sodipodi="http://sodipodi.sourceforge.net/DTD/sodipodi-0.dtd"
   xmlns:inkscape="http://www.inkscape.org/namespaces/inkscape"
   id="svg5484"
   version="1.1"
   inkscape:version="0.48.4 r9939"
   width="900.78003"
   height="300"
   xml:space="preserve"
   sodipodi:docname="3.eps"><metadata
     id="metadata5490"><rdf:RDF><cc:Work
         rdf:about=""><dc:format>image/svg+xml</dc:format><dc:type
           rdf:resource="http://purl.org/dc/dcmitype/StillImage" /><dc:title></dc:title></cc:Work></rdf:RDF></metadata><defs
     id="defs5488"><clipPath
       clipPathUnits="userSpaceOnUse"
       id="clipPath6024"><path
         d="m 1458.77,6126.66 66.6602,0 0,69.1797 -66.6602,0 0,-69.1797 z"
         id="path6026"
         inkscape:connector-curvature="0" /></clipPath></defs><sodipodi:namedview
     pagecolor="#ffffff"
     bordercolor="#666666"
     borderopacity="1"
     objecttolerance="10"
     gridtolerance="10"
     guidetolerance="10"
     inkscape:pageopacity="0"
     inkscape:pageshadow="2"
     inkscape:window-width="1600"
     inkscape:window-height="876"
     id="namedview5486"
     showgrid="false"
     inkscape:zoom="0.44320808"
     inkscape:cx="293.69088"
     inkscape:cy="505.378"
     inkscape:window-x="0"
     inkscape:window-y="24"
     inkscape:window-maximized="1"
     inkscape:current-layer="g5492" /><g
     id="g5492"
     inkscape:groupmode="layer"
     inkscape:label="ink_ext_XXXXXX"
     transform="matrix(1.25,0,0,-1.25,0,299.99998)"><path
       inkscape:connector-curvature="0"
       id="path5582"
       style="fill:#6c4e53;fill-opacity:1;fill-rule:nonzero;stroke:none"
       d="m 331.51159,95.25214 5.838,0.435 10.258,6.341 11.376,1.484 11.267,-4.013 38.074,-61.714 -111.571,0 34.758,57.467" /><path
       inkscape:connector-curvature="0"
       id="path5584"
       style="fill:#f0f1f0;fill-opacity:1;fill-rule:nonzero;stroke:none"
       d="m 351.98659,129.10314 25.235,-40.964 -11.385,6.946 -7.509,-7.509 -10.72,10.034 -10.214,-11.548 -5.882,9.19 20.475,33.851" /><path
       inkscape:connector-curvature="0"
       id="path5586"
       style="fill:#6c4e53;fill-opacity:1;fill-rule:nonzero;stroke:none"
       d="m 597.51159,117.25214 5.838,0.435 10.258,6.341 11.375,1.484 11.267,-4.013 38.074,-61.714 -111.571,0 34.759,57.467" /><path
       inkscape:connector-curvature="0"
       id="path5588"
       style="fill:#f0f1f0;fill-opacity:1;fill-rule:nonzero;stroke:none"
       d="m 617.98659,151.10314 25.234,-40.964 -11.385,6.946 -7.509,-7.509 -10.719,10.034 -10.215,-11.548 -5.881,9.19 20.475,33.851" /><path
       inkscape:connector-curvature="0"
       id="path5590"
       style="fill:#76555c;fill-opacity:1;fill-rule:nonzero;stroke:none"
       d="m 132.69259,114.72314 7.884,0.588 13.852,8.563 15.36,2.003 15.217,-5.419 51.415,-83.34 -150.666998,0 46.938998,77.605" /><path
       inkscape:connector-curvature="0"
       id="path5592"
       style="fill:#ffffff;fill-opacity:1;fill-rule:nonzero;stroke:none"
       d="m 160.34159,160.43614 34.078,-55.318 -15.375,9.38 -10.141,-10.142 -14.475,13.551 -13.794,-15.594 -7.942,12.41 27.649,45.713" /><path
       inkscape:connector-curvature="0"
       id="path5594"
       style="fill:#76555c;fill-opacity:1;fill-rule:nonzero;stroke:none"
       d="m 275.17859,94.58514 5.838,0.435 10.258,6.341 11.375,1.484 11.267,-4.013 38.075,-61.714 -111.571,0 34.758,57.467" /><path
       inkscape:connector-curvature="0"
       id="path5596"
       style="fill:#ffffff;fill-opacity:1;fill-rule:nonzero;stroke:none"
       d="m 295.65359,128.43614 25.235,-40.964 -11.385,6.946 -7.51,-7.509 -10.719,10.034 -10.214,-11.548 -5.882,9.19 20.475,33.851" /><path
       inkscape:connector-curvature="0"
       id="path5598"
       style="fill:#76555c;fill-opacity:1;fill-rule:nonzero;stroke:none"
       d="m 392.36959,102.88914 6.681,0.498 11.739,7.256 13.019,1.699 12.896,-4.593 43.575,-70.631 -127.692,0 39.782,65.771" /><path
       inkscape:connector-curvature="0"
       id="path5600"
       style="fill:#ffffff;fill-opacity:1;fill-rule:nonzero;stroke:none"
       d="m 415.80159,141.63114 28.882,-46.882 -13.03,7.949 -8.596,-8.595 -12.268,11.484 -11.689,-13.216 -6.731,10.518 23.432,38.742" /><path
       inkscape:connector-curvature="0"
       id="path5602"
       style="fill:#835e64;fill-opacity:1;fill-rule:nonzero;stroke:none"
       d="m 94.788592,89.14014 -5.286,0.395 -9.286,5.74 -10.297,1.344 -10.2,-3.634 -34.467,-55.867 100.999998,0 -31.463998,52.022" /><path
       inkscape:connector-curvature="0"
       id="path5604"
       style="fill:#ffffff;fill-opacity:1;fill-rule:nonzero;stroke:none"
       d="m 76.252592,119.78514 -16.533,-26.8 10.794,-10.794 9.703,9.084 9.247,-10.453 5.325,8.318 -18.536,30.645" /><path
       inkscape:connector-curvature="0"
       id="path5606"
       style="fill:#835e64;fill-opacity:1;fill-rule:nonzero;stroke:none"
       d="m 264.53559,98.92814 -6.28,0.467 -11.033,6.82 -12.233,1.596 -12.119,-4.316 -40.951,-66.377 120,0 -37.384,61.81" /><path
       inkscape:connector-curvature="0"
       id="path5608"
       style="fill:#ffffff;fill-opacity:1;fill-rule:nonzero;stroke:none"
       d="m 242.51359,135.33614 -19.643,-31.841 12.824,-12.825 11.528,10.793 10.986,-12.42 6.327,9.885 -22.022,36.408" /><path
       inkscape:connector-curvature="0"
       id="path5610"
       style="fill:#76555c;fill-opacity:1;fill-rule:nonzero;stroke:none"
       d="m 531.19259,114.72314 7.884,0.588 13.852,8.563 15.361,2.003 15.216,-5.419 51.415,-83.34 -150.666,0 46.938,77.605" /><path
       inkscape:connector-curvature="0"
       id="path5612"
       style="fill:#f0f1f0;fill-opacity:1;fill-rule:nonzero;stroke:none"
       d="m 558.84159,160.43614 34.079,-55.318 -15.375,9.38 -10.142,-10.142 -14.475,13.551 -13.793,-15.594 -7.943,12.41 27.649,45.713" /><path
       inkscape:connector-curvature="0"
       id="path5614"
       style="fill:#835e64;fill-opacity:1;fill-rule:nonzero;stroke:none"
       d="m 677.03559,98.92814 -6.279,0.467 -11.033,6.82 -12.234,1.596 -12.119,-4.316 -40.951,-66.377 120,0 -37.384,61.81" /><path
       inkscape:connector-curvature="0"
       id="path5616"
       style="fill:#ffffff;fill-opacity:1;fill-rule:nonzero;stroke:none"
       d="m 655.01459,135.33614 -19.644,-31.841 12.824,-12.825 11.529,10.793 10.986,-12.42 6.326,9.885 -22.021,36.408" /><path
       inkscape:connector-curvature="0"
       id="path5618"
       style="fill:#835e64;fill-opacity:1;fill-rule:nonzero;stroke:none"
       d="m 515.83459,109.62714 -7.365,0.548 -12.943,8 -14.352,1.873 -14.217,-5.065 -48.038,-77.865 140.771,0 -43.856,72.509" /><path
       inkscape:connector-curvature="0"
       id="path5620"
       style="fill:#ffffff;fill-opacity:1;fill-rule:nonzero;stroke:none"
       d="m 490.00259,152.33614 -23.045,-37.353 15.044,-15.043 13.525,12.66 12.888,-14.569 7.42,11.596 -25.832,42.709" /><path
       inkscape:connector-curvature="0"
       id="path5622"
       style="fill:#faee9f;fill-opacity:1;fill-rule:nonzero;stroke:none"
       d="m 714.94259,23.92514 -700.432998,0.699 -0.019,25.511 700.534998,0.207 -0.083,-26.417" /><path
       inkscape:connector-curvature="0"
       id="path5624"
       style="fill:#46b9ce;fill-opacity:1;fill-rule:nonzero;stroke:none"
       d="m 14.489592,14.63714 700.463998,0 0,25.498 -700.463998,0 0,-25.498 z" /><path
       inkscape:connector-curvature="0"
       id="path5626"
       style="fill:#324248;fill-opacity:1;fill-rule:nonzero;stroke:none"
       d="m 442.31959,36.25714 7.818,-12.476 17.889,0 0.211,12.476 -25.918,0" /><path
       inkscape:connector-curvature="0"
       id="path5628"
       style="fill:#324248;fill-opacity:1;fill-rule:nonzero;stroke:none"
       d="m 495.75059,36.25714 -27.724,0 0,-12.476 17.428,0 10.296,12.476" /><path
       inkscape:connector-curvature="0"
       id="path5630"
       style="fill:#f4f7f0;fill-opacity:1;fill-rule:nonzero;stroke:none"
       d="m 446.14759,37.74214 21.85,0 c 0,0 0,32.321 0,37.26 -18.767,-13.647 -21.85,-37.26 -21.85,-37.26" /><path
       inkscape:connector-curvature="0"
       id="path5632"
       style="fill:#ebede7;fill-opacity:1;fill-rule:nonzero;stroke:none"
       d="m 469.53859,70.25314 c 0,-4.289 0,-32.358 0,-32.358 l 18.976,0 c 0,0 -2.678,20.507 -18.976,32.358" /><path
       inkscape:connector-curvature="0"
       id="path5634"
       style="fill:#f3f3f3;fill-opacity:1;fill-rule:nonzero;stroke:none"
       d="m 443.77359,33.93614 1.408,-2.247 23.056,0 0,2.247 -24.464,0" /><path
       inkscape:connector-curvature="0"
       id="path5636"
       style="fill:#ebede7;fill-opacity:1;fill-rule:nonzero;stroke:none"
       d="m 493.84859,33.93614 -25.822,0 0,-2.247 23.955,0 1.867,2.247" /><path
       inkscape:connector-curvature="0"
       id="path5638"
       style="fill:#8fae45;fill-opacity:1;fill-rule:nonzero;stroke:none"
       d="m 313.09659,54.07214 c 0,1.432 -0.782,2.68 -1.942,3.346 0.007,0.089 0.013,0.179 0.013,0.271 0,2.131 -1.727,3.858 -3.858,3.858 -0.605,0 -1.177,-0.142 -1.687,-0.391 -0.418,1.678 -1.931,2.924 -3.739,2.924 -1.411,0 -2.642,-0.76 -3.314,-1.891 -0.652,0.503 -1.467,0.806 -2.354,0.806 -2.131,0 -3.857,-1.728 -3.857,-3.86 0,-0.499 0.097,-0.975 0.27,-1.414 -1.74,-0.373 -3.045,-1.919 -3.045,-3.77 0,-2.131 1.728,-3.859 3.86,-3.859 l 0.12,0.006 0,-0.006 c 0,0 12.908,0 15.917,0 3.008,0 3.616,1.93 3.616,3.98" /><path
       inkscape:connector-curvature="0"
       id="path5640"
       style="fill:#9fc04c;fill-opacity:1;fill-rule:nonzero;stroke:none"
       d="m 298.20459,54.07214 c 0,1.432 -0.783,2.68 -1.943,3.346 0.007,0.089 0.014,0.179 0.014,0.271 0,2.131 -1.728,3.858 -3.859,3.858 -0.605,0 -1.175,-0.142 -1.685,-0.391 -0.419,1.678 -1.933,2.924 -3.74,2.924 -1.412,0 -2.642,-0.76 -3.315,-1.891 -0.651,0.503 -1.466,0.806 -2.352,0.806 -2.132,0 -3.859,-1.728 -3.859,-3.86 0,-0.499 0.098,-0.975 0.271,-1.414 -1.74,-0.373 -3.044,-1.919 -3.044,-3.77 0,-2.131 1.727,-3.859 3.858,-3.859 l 0.121,0.006 0,-0.006 c 0,0 12.908,0 15.916,0 3.008,0 3.617,1.93 3.617,3.98" /><path
       inkscape:connector-curvature="0"
       id="path5642"
       style="fill:#8fae45;fill-opacity:1;fill-rule:nonzero;stroke:none"
       d="m 391.99459,54.06014 c 0,1.414 -0.772,2.645 -1.917,3.302 l 0.013,0.266 c 0,2.103 -1.705,3.808 -3.806,3.808 -0.598,0 -1.161,-0.142 -1.663,-0.387 -0.414,1.656 -1.907,2.885 -3.691,2.885 -1.392,0 -2.606,-0.75 -3.269,-1.865 -0.644,0.496 -1.447,0.794 -2.322,0.794 -2.102,0 -3.806,-1.704 -3.806,-3.807 0,-0.492 0.096,-0.963 0.266,-1.395 -1.716,-0.368 -3.003,-1.894 -3.003,-3.72 0,-2.103 1.704,-3.807 3.807,-3.807 l 0.119,0.006 0,-0.006 c 0,0 12.735,0 15.703,0 2.968,0 3.569,1.904 3.569,3.926" /><path
       inkscape:connector-curvature="0"
       id="path5644"
       style="fill:#8fae45;fill-opacity:1;fill-rule:nonzero;stroke:none"
       d="m 519.74459,54.31014 c 0,1.414 -0.772,2.645 -1.917,3.302 l 0.013,0.266 c 0,2.103 -1.705,3.808 -3.806,3.808 -0.598,0 -1.161,-0.142 -1.663,-0.387 -0.414,1.656 -1.907,2.885 -3.691,2.885 -1.392,0 -2.606,-0.75 -3.269,-1.865 -0.644,0.496 -1.447,0.794 -2.322,0.794 -2.102,0 -3.806,-1.704 -3.806,-3.807 0,-0.492 0.096,-0.963 0.266,-1.395 -1.716,-0.368 -3.003,-1.894 -3.003,-3.72 0,-2.103 1.704,-3.807 3.807,-3.807 l 0.119,0.006 0,-0.006 c 0,0 12.735,0 15.703,0 2.968,0 3.569,1.904 3.569,3.926" /><path
       inkscape:connector-curvature="0"
       id="path5646"
       style="fill:#9fc04c;fill-opacity:1;fill-rule:nonzero;stroke:none"
       d="m 438.26459,54.14314 c 0,1.414 -0.771,2.645 -1.917,3.302 l 0.014,0.266 c 0,2.103 -1.705,3.808 -3.807,3.808 -0.598,0 -1.16,-0.142 -1.663,-0.387 -0.413,1.656 -1.906,2.885 -3.69,2.885 -1.392,0 -2.607,-0.75 -3.27,-1.865 -0.643,0.496 -1.446,0.794 -2.321,0.794 -2.103,0 -3.807,-1.704 -3.807,-3.807 0,-0.492 0.097,-0.963 0.267,-1.395 -1.716,-0.368 -3.003,-1.894 -3.003,-3.72 0,-2.103 1.704,-3.807 3.806,-3.807 l 0.12,0.006 0,-0.006 c 0,0 12.735,0 15.703,0 2.967,0 3.568,1.904 3.568,3.926" /><path
       inkscape:connector-curvature="0"
       id="path5648"
       style="fill:#9fc04c;fill-opacity:1;fill-rule:nonzero;stroke:none"
       d="m 558.01459,54.39314 c 0,1.414 -0.771,2.645 -1.917,3.302 l 0.014,0.266 c 0,2.103 -1.705,3.808 -3.807,3.808 -0.598,0 -1.16,-0.142 -1.663,-0.387 -0.413,1.656 -1.906,2.885 -3.69,2.885 -1.392,0 -2.607,-0.75 -3.27,-1.865 -0.643,0.496 -1.446,0.794 -2.321,0.794 -2.103,0 -3.807,-1.704 -3.807,-3.807 0,-0.492 0.097,-0.963 0.267,-1.395 -1.716,-0.368 -3.003,-1.894 -3.003,-3.72 0,-2.103 1.704,-3.807 3.806,-3.807 l 0.12,0.006 0,-0.006 c 0,0 12.735,0 15.703,0 2.967,0 3.568,1.904 3.568,3.926" /><path
       inkscape:connector-curvature="0"
       id="path5650"
       style="fill:#9fc04c;fill-opacity:1;fill-rule:nonzero;stroke:none"
       d="m 587.01459,54.14314 c 0,1.414 -0.771,2.645 -1.917,3.302 l 0.014,0.266 c 0,2.103 -1.705,3.808 -3.807,3.808 -0.598,0 -1.16,-0.142 -1.663,-0.387 -0.413,1.656 -1.906,2.885 -3.69,2.885 -1.392,0 -2.607,-0.75 -3.27,-1.865 -0.643,0.496 -1.446,0.794 -2.321,0.794 -2.103,0 -3.807,-1.704 -3.807,-3.807 0,-0.492 0.097,-0.963 0.267,-1.395 -1.716,-0.368 -3.003,-1.894 -3.003,-3.72 0,-2.103 1.704,-3.807 3.806,-3.807 l 0.12,0.006 0,-0.006 c 0,0 12.735,0 15.703,0 2.967,0 3.568,1.904 3.568,3.926" /><path
       inkscape:connector-curvature="0"
       id="path5652"
       style="fill:#9fc04c;fill-opacity:1;fill-rule:nonzero;stroke:none"
       d="m 617.26459,54.14314 c 0,1.414 -0.771,2.645 -1.917,3.302 l 0.014,0.266 c 0,2.103 -1.705,3.808 -3.807,3.808 -0.598,0 -1.16,-0.142 -1.663,-0.387 -0.413,1.656 -1.906,2.885 -3.69,2.885 -1.392,0 -2.607,-0.75 -3.27,-1.865 -0.643,0.496 -1.446,0.794 -2.321,0.794 -2.103,0 -3.807,-1.704 -3.807,-3.807 0,-0.492 0.097,-0.963 0.267,-1.395 -1.716,-0.368 -3.003,-1.894 -3.003,-3.72 0,-2.103 1.704,-3.807 3.806,-3.807 l 0.12,0.006 0,-0.006 c 0,0 12.735,0 15.703,0 2.967,0 3.568,1.904 3.568,3.926" /><path
       inkscape:connector-curvature="0"
       id="path5654"
       style="fill:#9fc04c;fill-opacity:1;fill-rule:nonzero;stroke:none"
       d="m 658.43059,53.97614 c 0,1.414 -0.771,2.645 -1.917,3.302 l 0.014,0.266 c 0,2.103 -1.705,3.808 -3.807,3.808 -0.598,0 -1.16,-0.142 -1.663,-0.387 -0.413,1.656 -1.906,2.885 -3.69,2.885 -1.392,0 -2.607,-0.75 -3.27,-1.865 -0.643,0.496 -1.446,0.794 -2.321,0.794 -2.103,0 -3.807,-1.704 -3.807,-3.807 0,-0.492 0.097,-0.963 0.267,-1.395 -1.716,-0.368 -3.003,-1.894 -3.003,-3.72 0,-2.103 1.704,-3.807 3.806,-3.807 l 0.12,0.006 0,-0.006 c 0,0 12.735,0 15.703,0 2.967,0 3.568,1.904 3.568,3.926" /><path
       inkscape:connector-curvature="0"
       id="path5656"
       style="fill:#9fc04c;fill-opacity:1;fill-rule:nonzero;stroke:none"
       d="m 681.59759,45.80914 c 0,1.414 -0.771,2.645 -1.917,3.302 l 0.014,0.266 c 0,2.103 -1.705,3.808 -3.807,3.808 -0.598,0 -1.16,-0.142 -1.663,-0.387 -0.413,1.656 -1.906,2.885 -3.69,2.885 -1.392,0 -2.607,-0.75 -3.27,-1.865 -0.643,0.496 -1.446,0.794 -2.321,0.794 -2.103,0 -3.807,-1.704 -3.807,-3.807 0,-0.492 0.097,-0.963 0.267,-1.395 -1.716,-0.368 -3.003,-1.894 -3.003,-3.72 0,-2.103 1.704,-3.807 3.806,-3.807 l 0.12,0.006 0,-0.006 c 0,0 12.735,0 15.703,0 2.967,0 3.568,1.904 3.568,3.926" /><path
       inkscape:connector-curvature="0"
       id="path5658"
       style="fill:#9fc04c;fill-opacity:1;fill-rule:nonzero;stroke:none"
       d="m 704.43059,50.80914 c 0,1.414 -0.771,2.645 -1.917,3.302 l 0.014,0.266 c 0,2.103 -1.705,3.808 -3.807,3.808 -0.598,0 -1.16,-0.142 -1.663,-0.387 -0.413,1.656 -1.906,2.885 -3.69,2.885 -1.392,0 -2.607,-0.75 -3.27,-1.865 -0.643,0.496 -1.446,0.794 -2.321,0.794 -2.103,0 -3.807,-1.704 -3.807,-3.807 0,-0.492 0.097,-0.963 0.267,-1.395 -1.716,-0.368 -3.003,-1.894 -3.003,-3.72 0,-2.103 1.704,-3.807 3.806,-3.807 l 0.12,0.006 0,-0.006 c 0,0 12.735,0 15.703,0 2.967,0 3.568,1.904 3.568,3.926" /><path
       inkscape:connector-curvature="0"
       id="path5660"
       style="fill:#9fc04c;fill-opacity:1;fill-rule:nonzero;stroke:none"
       d="m 716.93059,47.97614 c 0,1.414 -0.771,2.645 -1.917,3.302 l 0.014,0.266 c 0,2.103 -1.705,3.808 -3.807,3.808 -0.598,0 -1.16,-0.142 -1.663,-0.387 -0.413,1.656 -1.906,2.885 -3.69,2.885 -1.392,0 -2.607,-0.75 -3.27,-1.865 -0.643,0.496 -1.446,0.794 -2.321,0.794 -2.103,0 -3.807,-1.704 -3.807,-3.807 0,-0.492 0.097,-0.963 0.267,-1.395 -1.716,-0.368 -3.003,-1.894 -3.003,-3.72 0,-2.103 1.704,-3.807 3.806,-3.807 l 0.12,0.006 0,-0.006 c 0,0 12.735,0 15.703,0 2.967,0 3.568,1.904 3.568,3.926" /><path
       inkscape:connector-curvature="0"
       id="path5662"
       style="fill:#9fc04c;fill-opacity:1;fill-rule:nonzero;stroke:none"
       d="m 408.63959,54.01814 c 0,1.414 -0.771,2.645 -1.917,3.302 l 0.014,0.266 c 0,2.103 -1.705,3.808 -3.807,3.808 -0.598,0 -1.16,-0.142 -1.663,-0.387 -0.413,1.656 -1.906,2.885 -3.69,2.885 -1.392,0 -2.607,-0.75 -3.27,-1.865 -0.643,0.496 -1.446,0.794 -2.321,0.794 -2.103,0 -3.807,-1.704 -3.807,-3.807 0,-0.492 0.097,-0.963 0.267,-1.395 -1.716,-0.368 -3.003,-1.894 -3.003,-3.72 0,-2.103 1.704,-3.807 3.806,-3.807 l 0.12,0.006 0,-0.006 c 0,0 12.735,0 15.703,0 2.967,0 3.568,1.904 3.568,3.926" /><path
       inkscape:connector-curvature="0"
       id="path5664"
       style="fill:#c8c081;fill-opacity:1;fill-rule:nonzero;stroke:none"
       d="m 61.219592,40.05114 14.351,0 2.183,10.919 -6.959,8.03 -5.967,-2.835 -8.953,-0.895 2.835,-9.399 2.51,-5.82" /><path
       inkscape:connector-curvature="0"
       id="path5666"
       style="fill:#c8c081;fill-opacity:1;fill-rule:nonzero;stroke:none"
       d="m 108.37859,40.18414 14.351,0 0.06,9.369 -3.463,6.395 -7.34,0.349 -9.046,-4.212 2.929,-6.082 2.509,-5.819" /><path
       inkscape:connector-curvature="0"
       id="path5668"
       style="fill:#e0d68f;fill-opacity:1;fill-rule:nonzero;stroke:none"
       d="m 31.072592,40.05114 6.285,0 0.168,4.115 -1.282,2.743 -4.297,1.647 -1.921,-1.829 0.639,-2.835 0.408,-3.841" /><path
       inkscape:connector-curvature="0"
       id="path5670"
       style="fill:#c8c081;fill-opacity:1;fill-rule:nonzero;stroke:none"
       d="m 44.612592,40.05114 6.285,0 0.167,4.115 1.069,3.527 -4.298,1.647 -4.269,-2.613 0.639,-2.835 0.407,-3.841" /><path
       inkscape:connector-curvature="0"
       id="path5672"
       style="fill:#c8c081;fill-opacity:1;fill-rule:nonzero;stroke:none"
       d="m 25.348592,40.25214 6.285,0 0.167,4.114 1.07,3.527 -5.678,2.199 -4.5,-3 2.25,-3 0.406,-3.84" /><path
       inkscape:connector-curvature="0"
       id="path5674"
       style="fill:#e0d68f;fill-opacity:1;fill-rule:nonzero;stroke:none"
       d="m 87.398592,40.05114 7.411,0 0.196,1.949 -1.509,1.3 -5.069,0.781 -2.264,-0.868 0.755,-1.342 0.48,-1.82" /><path
       inkscape:connector-curvature="0"
       id="path5676"
       style="fill:#e0d68f;fill-opacity:1;fill-rule:nonzero;stroke:none"
       d="m 119.67059,40.18414 7.41,0 0.198,1.949 -1.511,1.301 -4.143,1.59 -2.433,-3.021 0.479,-1.819" /><path
       inkscape:connector-curvature="0"
       id="path5678"
       style="fill:#e0d68f;fill-opacity:1;fill-rule:nonzero;stroke:none"
       d="m 49.210592,40.05114 13.896,0 2.114,10.573 -3.703,6.619 -8.813,1.009 -4.623,-5.2 -1.588,-4.242 2.717,-8.759" /><path
       inkscape:connector-curvature="0"
       id="path5680"
       style="fill:#e0d68f;fill-opacity:1;fill-rule:nonzero;stroke:none"
       d="m 101.43259,40.18414 13.896,0 -0.931,4.974 -0.933,5.727 -5.861,2.798 -7.3,-0.497 -1.358998,-5.231 2.487998,-7.771" /><path
       inkscape:connector-curvature="0"
       id="path5682"
       style="fill:#e0d68f;fill-opacity:1;fill-rule:nonzero;stroke:none"
       d="m 74.144592,40.05114 10.255,0 0.272,6.714 -2.089,4.477 -7.011,2.685 -3.135,-2.984 1.045,-4.625 0.663,-6.267" /><path
       inkscape:connector-curvature="0"
       id="path5684"
       style="fill:#c8c081;fill-opacity:1;fill-rule:nonzero;stroke:none"
       d="m 645.88659,40.21814 14.351,0 2.184,10.919 -6.959,8.03 -5.968,-2.835 -5.718,-3.074 -0.4,-7.22 2.51,-5.82" /><path
       inkscape:connector-curvature="0"
       id="path5686"
       style="fill:#c8c081;fill-opacity:1;fill-rule:nonzero;stroke:none"
       d="m 693.04659,40.35114 14.35,0 0.06,9.369 -3.462,6.395 -7.34,0.349 -9.047,-4.212 2.93,-6.082 2.509,-5.819" /><path
       inkscape:connector-curvature="0"
       id="path5688"
       style="fill:#e0d68f;fill-opacity:1;fill-rule:nonzero;stroke:none"
       d="m 672.06659,40.21814 7.41,0 0.196,1.949 -1.509,1.3 -5.068,0.781 -2.264,-0.868 0.754,-1.342 0.481,-1.82" /><path
       inkscape:connector-curvature="0"
       id="path5690"
       style="fill:#e0d68f;fill-opacity:1;fill-rule:nonzero;stroke:none"
       d="m 704.33759,40.35114 7.41,0 0.198,1.949 -1.51,1.301 -4.144,1.59 -2.433,-3.021 0.479,-1.819" /><path
       inkscape:connector-curvature="0"
       id="path5692"
       style="fill:#e0d68f;fill-opacity:1;fill-rule:nonzero;stroke:none"
       d="m 638.67159,40.18514 7.41,0 0.198,1.949 -1.51,1.301 -4.144,1.59 -2.433,-3.021 0.479,-1.819" /><path
       inkscape:connector-curvature="0"
       id="path5694"
       style="fill:#e0d68f;fill-opacity:1;fill-rule:nonzero;stroke:none"
       d="m 686.09959,40.35114 13.896,0 -0.931,4.974 -0.932,5.727 -5.862,2.798 -7.3,-0.497 -1.359,-5.231 2.488,-7.771" /><path
       inkscape:connector-curvature="0"
       id="path5696"
       style="fill:#e0d68f;fill-opacity:1;fill-rule:nonzero;stroke:none"
       d="m 658.81159,40.21814 10.255,0 0.272,6.714 -2.089,4.477 -7.011,2.685 -3.135,-2.984 1.045,-4.625 0.663,-6.267" /><path
       inkscape:connector-curvature="0"
       id="path5698"
       style="fill:#9d6a48;fill-opacity:1;fill-rule:nonzero;stroke:none"
       d="m 311.91559,40.18814 2.55313,0 0,10.5691 -2.55313,0 0,-10.5691 z" /><path
       inkscape:connector-curvature="0"
       id="path5700"
       style="fill:#9d6a48;fill-opacity:1;fill-rule:nonzero;stroke:none"
       d="m 323.21859,40.14614 2.55313,0 0,10.5691 -2.55313,0 0,-10.5691 z" /><path
       inkscape:connector-curvature="0"
       id="path5702"
       style="fill:#9d6a48;fill-opacity:1;fill-rule:nonzero;stroke:none"
       d="m 334.52059,40.23114 2.5543,0 0,10.568 -2.5543,0 0,-10.568 z" /><path
       inkscape:connector-curvature="0"
       id="path5704"
       style="fill:#9d6a48;fill-opacity:1;fill-rule:nonzero;stroke:none"
       d="m 345.82359,40.13514 2.55313,0 0,10.5703 -2.55313,0 0,-10.5703 z" /><path
       inkscape:connector-curvature="0"
       id="path5706"
       style="fill:#fbcf57;fill-opacity:1;fill-rule:nonzero;stroke:none"
       d="m 311.91559,51.85114 36.498,0 0,19.602 -36.498,0 0,-19.602 z" /><path
       inkscape:connector-curvature="0"
       id="path5708"
       style="fill:#ffffff;fill-opacity:1;fill-rule:nonzero;stroke:none"
       d="m 317.54759,56.63914 9.01211,0 0,9.23789 -9.01211,0 0,-9.23789 z" /><path
       inkscape:connector-curvature="0"
       id="path5710"
       style="fill:#e78835;fill-opacity:1;fill-rule:nonzero;stroke:none"
       d="m 317.88559,56.97714 8.336,0 0,8.561 -8.336,0 0,-8.561 z m 9.013,-0.677 -9.689,0 0,9.914 9.689,0 0,-9.914" /><path
       inkscape:connector-curvature="0"
       id="path5712"
       style="fill:#ffffff;fill-opacity:1;fill-rule:nonzero;stroke:none"
       d="m 333.76959,56.63914 9.01172,0 0,9.23789 -9.01172,0 0,-9.23789 z" /><path
       inkscape:connector-curvature="0"
       id="path5714"
       style="fill:#e78835;fill-opacity:1;fill-rule:nonzero;stroke:none"
       d="m 334.10759,56.97714 8.336,0 0,8.561 -8.336,0 0,-8.561 z m 9.012,-0.677 -9.688,0 0,9.914 9.688,0 0,-9.914" /><path
       inkscape:connector-curvature="0"
       id="path5716"
       style="fill:#955e41;fill-opacity:1;fill-rule:nonzero;stroke:none"
       d="m 311.91559,49.82414 36.498,0 0,2.70313 -36.498,0 0,-2.70313 z" /><path
       inkscape:connector-curvature="0"
       id="path5718"
       style="fill:#9d6a48;fill-opacity:1;fill-rule:nonzero;stroke:none"
       d="m 330.16359,87.05414 -20.445,-15.546 40.889,0 -20.444,15.546" /><path
       inkscape:connector-curvature="0"
       id="path5720"
       style="fill:#955e41;fill-opacity:1;fill-rule:nonzero;stroke:none"
       d="m 309.73959,69.27414 40.909,0 0,2.25313 -40.909,0 0,-2.25313 z" /><path
       inkscape:connector-curvature="0"
       id="path5722"
       style="fill:#9d6a48;fill-opacity:1;fill-rule:nonzero;stroke:none"
       d="m 511.24859,39.85514 2.55313,0 0,10.5688 -2.55313,0 0,-10.5688 z" /><path
       inkscape:connector-curvature="0"
       id="path5724"
       style="fill:#9d6a48;fill-opacity:1;fill-rule:nonzero;stroke:none"
       d="m 522.55159,39.81314 2.55273,0 0,10.5691 -2.55273,0 0,-10.5691 z" /><path
       inkscape:connector-curvature="0"
       id="path5726"
       style="fill:#9d6a48;fill-opacity:1;fill-rule:nonzero;stroke:none"
       d="m 533.85459,39.89814 2.55313,0 0,10.568 -2.55313,0 0,-10.568 z" /><path
       inkscape:connector-curvature="0"
       id="path5728"
       style="fill:#9d6a48;fill-opacity:1;fill-rule:nonzero;stroke:none"
       d="m 545.15759,39.80214 2.55195,0 0,10.5699 -2.55195,0 0,-10.5699 z" /><path
       inkscape:connector-curvature="0"
       id="path5730"
       style="fill:#fbcf57;fill-opacity:1;fill-rule:nonzero;stroke:none"
       d="m 511.24859,51.51814 36.498,0 0,19.602 -36.498,0 0,-19.602 z" /><path
       inkscape:connector-curvature="0"
       id="path5732"
       style="fill:#ffffff;fill-opacity:1;fill-rule:nonzero;stroke:none"
       d="m 516.88159,56.30614 9.01211,0 0,9.23711 -9.01211,0 0,-9.23711 z" /><path
       inkscape:connector-curvature="0"
       id="path5734"
       style="fill:#e78835;fill-opacity:1;fill-rule:nonzero;stroke:none"
       d="m 517.21959,56.64414 8.336,0 0,8.561 -8.336,0 0,-8.561 z m 9.012,-0.677 -9.688,0 0,9.914 9.688,0 0,-9.914" /><path
       inkscape:connector-curvature="0"
       id="path5736"
       style="fill:#ffffff;fill-opacity:1;fill-rule:nonzero;stroke:none"
       d="m 533.10259,56.30614 9.01211,0 0,9.23711 -9.01211,0 0,-9.23711 z" /><path
       inkscape:connector-curvature="0"
       id="path5738"
       style="fill:#e78835;fill-opacity:1;fill-rule:nonzero;stroke:none"
       d="m 533.44059,56.64414 8.336,0 0,8.561 -8.336,0 0,-8.561 z m 9.012,-0.677 -9.688,0 0,9.914 9.688,0 0,-9.914" /><path
       inkscape:connector-curvature="0"
       id="path5740"
       style="fill:#955e41;fill-opacity:1;fill-rule:nonzero;stroke:none"
       d="m 511.24859,49.49114 36.498,0 0,2.70273 -36.498,0 0,-2.70273 z" /><path
       inkscape:connector-curvature="0"
       id="path5742"
       style="fill:#9d6a48;fill-opacity:1;fill-rule:nonzero;stroke:none"
       d="m 529.49659,86.72114 -20.445,-15.546 40.889,0 -20.444,15.546" /><path
       inkscape:connector-curvature="0"
       id="path5744"
       style="fill:#955e41;fill-opacity:1;fill-rule:nonzero;stroke:none"
       d="m 509.07259,68.94114 40.909,0 0,2.25273 -40.909,0 0,-2.25273 z" /><path
       inkscape:connector-curvature="0"
       id="path5746"
       style="fill:#9d6a48;fill-opacity:1;fill-rule:nonzero;stroke:none"
       d="m 574.30259,39.80214 2.55313,0 0,10.5699 -2.55313,0 0,-10.5699 z" /><path
       inkscape:connector-curvature="0"
       id="path5748"
       style="fill:#9d6a48;fill-opacity:1;fill-rule:nonzero;stroke:none"
       d="m 585.60559,39.76014 2.55313,0 0,10.5703 -2.55313,0 0,-10.5703 z" /><path
       inkscape:connector-curvature="0"
       id="path5750"
       style="fill:#9d6a48;fill-opacity:1;fill-rule:nonzero;stroke:none"
       d="m 596.90859,39.84514 2.55195,0 0,10.5691 -2.55195,0 0,-10.5691 z" /><path
       inkscape:connector-curvature="0"
       id="path5752"
       style="fill:#9d6a48;fill-opacity:1;fill-rule:nonzero;stroke:none"
       d="m 608.21059,39.75014 2.55273,0 0,10.5688 -2.55273,0 0,-10.5688 z" /><path
       inkscape:connector-curvature="0"
       id="path5754"
       style="fill:#fbcf57;fill-opacity:1;fill-rule:nonzero;stroke:none"
       d="m 574.30259,51.46514 36.498,0 0,19.602 -36.498,0 0,-19.602 z" /><path
       inkscape:connector-curvature="0"
       id="path5756"
       style="fill:#ffffff;fill-opacity:1;fill-rule:nonzero;stroke:none"
       d="m 579.93559,56.25314 9.01172,0 0,9.23828 -9.01172,0 0,-9.23828 z" /><path
       inkscape:connector-curvature="0"
       id="path5758"
       style="fill:#e78835;fill-opacity:1;fill-rule:nonzero;stroke:none"
       d="m 580.27359,56.59114 8.336,0 0,8.561 -8.336,0 0,-8.561 z m 9.012,-0.676 -9.688,0 0,9.914 9.688,0 0,-9.914" /><path
       inkscape:connector-curvature="0"
       id="path5760"
       style="fill:#ffffff;fill-opacity:1;fill-rule:nonzero;stroke:none"
       d="m 596.15659,56.25314 9.01094,0 0,9.23828 -9.01094,0 0,-9.23828 z" /><path
       inkscape:connector-curvature="0"
       id="path5762"
       style="fill:#e78835;fill-opacity:1;fill-rule:nonzero;stroke:none"
       d="m 596.49459,56.59114 8.335,0 0,8.561 -8.335,0 0,-8.561 z m 9.011,-0.676 -9.687,0 0,9.914 9.687,0 0,-9.914" /><path
       inkscape:connector-curvature="0"
       id="path5764"
       style="fill:#955e41;fill-opacity:1;fill-rule:nonzero;stroke:none"
       d="m 574.30259,49.43814 36.498,0 0,2.70313 -36.498,0 0,-2.70313 z" /><path
       inkscape:connector-curvature="0"
       id="path5766"
       style="fill:#9d6a48;fill-opacity:1;fill-rule:nonzero;stroke:none"
       d="m 592.55059,86.66814 -20.445,-15.545 40.889,0 -20.444,15.545" /><path
       inkscape:connector-curvature="0"
       id="path5768"
       style="fill:#955e41;fill-opacity:1;fill-rule:nonzero;stroke:none"
       d="m 572.12559,68.88814 40.9102,0 0,2.25313 -40.9102,0 0,-2.25313 z" /><path
       inkscape:connector-curvature="0"
       id="path5770"
       style="fill:#8fae45;fill-opacity:1;fill-rule:nonzero;stroke:none"
       d="m 202.53459,77.11314 -0.121,-0.025 c -1.756,-0.519 -8.114,-11.758 -8.114,-16.836 0,-5.196 3.424,-9.41 7.647,-9.41 0.157,0 0.312,0.008 0.467,0.02 4.004,0.297 7.178,4.388 7.178,9.39 0,5.198 -5.489,16.861 -7.057,16.861" /><path
       inkscape:connector-curvature="0"
       id="path5772"
       style="fill:#9fc04c;fill-opacity:1;fill-rule:nonzero;stroke:none"
       d="m 193.63859,77.69614 -0.142,-0.029 c -2.068,-0.612 -9.554,-13.847 -9.554,-19.826 0,-6.12 4.031,-11.082 9.004,-11.082 0.184,0 0.368,0.009 0.55,0.023 4.716,0.35 8.454,5.167 8.454,11.059 0,6.12 -6.465,19.855 -8.312,19.855" /><path
       inkscape:connector-curvature="0"
       id="path5774"
       style="fill:#9fc04c;fill-opacity:1;fill-rule:nonzero;stroke:none"
       d="m 176.77059,71.40514 -0.107,-0.023 c -1.558,-0.46 -7.2,-10.433 -7.2,-14.938 0,-4.612 3.037,-8.352 6.785,-8.352 0.139,0 0.278,0.007 0.415,0.017 3.553,0.265 6.37,3.894 6.37,8.335 0,4.611 -4.871,14.961 -6.263,14.961" /><path
       inkscape:connector-curvature="0"
       id="path5776"
       style="fill:#9fc04c;fill-opacity:1;fill-rule:nonzero;stroke:none"
       d="m 208.49159,75.83314 -0.128,-0.027 c -1.878,-0.554 -8.671,-12.565 -8.671,-17.99 0,-5.554 3.658,-10.057 8.171,-10.057 0.167,0 0.334,0.008 0.5,0.021 4.278,0.318 7.67,4.688 7.67,10.036 0,5.554 -5.867,18.017 -7.542,18.017" /><path
       inkscape:connector-curvature="0"
       id="path5778"
       style="fill:#324248;fill-opacity:1;fill-rule:nonzero;stroke:none"
       d="m 165.65259,34.59114 7.818,-12.476 17.89,0 0.21,12.476 -25.918,0" /><path
       inkscape:connector-curvature="0"
       id="path5780"
       style="fill:#324248;fill-opacity:1;fill-rule:nonzero;stroke:none"
       d="m 219.08459,34.59114 -27.724,0 0,-12.476 17.428,0 10.296,12.476" /><path
       inkscape:connector-curvature="0"
       id="path5782"
       style="fill:#ffffff;fill-opacity:1;fill-rule:nonzero;stroke:none"
       d="m 169.48059,36.07614 21.85,0 c 0,0 0,32.321 0,37.259 -18.767,-13.646 -21.85,-37.259 -21.85,-37.259" /><path
       inkscape:connector-curvature="0"
       id="path5784"
       style="fill:#f0f1f0;fill-opacity:1;fill-rule:nonzero;stroke:none"
       d="m 192.87159,68.58714 c 0,-4.289 0,-32.358 0,-32.358 l 18.976,0 c 0,0 -2.678,20.507 -18.976,32.358" /><path
       inkscape:connector-curvature="0"
       id="path5786"
       style="fill:#f3f3f3;fill-opacity:1;fill-rule:nonzero;stroke:none"
       d="m 167.10659,32.27014 1.408,-2.247 23.056,0 0,2.247 -24.464,0" /><path
       inkscape:connector-curvature="0"
       id="path5788"
       style="fill:#ebede7;fill-opacity:1;fill-rule:nonzero;stroke:none"
       d="m 217.18159,32.27014 -25.821,0 0,-2.247 23.954,0 1.867,2.247" /><path
       inkscape:connector-curvature="0"
       id="path6352"
       style="fill:#9bd040;fill-opacity:1;fill-rule:nonzero;stroke:none"
       d="m 697.07779,207.39914 c -0.23516,-0.036 -0.43633,-0.097 -0.65508,-0.144 0.31133,0.064 0.63438,0.121 0.97656,0.166 -0.11054,-0.012 -0.20937,-0.005 -0.32148,-0.022" /><path
       inkscape:connector-curvature="0"
       id="path6354"
       style="fill:#9bd040;fill-opacity:1;fill-rule:nonzero;stroke:none"
       d="m 695.40982,206.98214 c 0.18633,0.06 0.36328,0.124 0.56055,0.173 -0.19414,-0.051 -0.37891,-0.112 -0.56055,-0.173" /></g></svg>