<svg
   xmlns:osb="http://www.openswatchbook.org/uri/2009/osb"
   xmlns:dc="http://purl.org/dc/elements/1.1/"
   xmlns:cc="http://creativecommons.org/ns#"
   xmlns:rdf="http://www.w3.org/1999/02/22-rdf-syntax-ns#"
   xmlns:svg="http://www.w3.org/2000/svg"
   xmlns="http://www.w3.org/2000/svg"
   xmlns:xlink="http://www.w3.org/1999/xlink"
   xmlns:sodipodi="http://sodipodi.sourceforge.net/DTD/sodipodi-0.dtd"
   xmlns:inkscape="http://www.inkscape.org/namespaces/inkscape"
   width="410"
   height="130.28999"><g
     transform="matrix(1.25,0,0,-1.25,0,130.29014)"><g
       transform="scale(0.1,0.1)"><g 
         transform="translate(-18314.416,847.92428)"><path class="cloud"
           d="m 21557.857,-479.83813 c 0,196.87 -159.58,356.43999 -356.44,356.43999 -176.45,0 -322.85,-128.22999 -351.33,-296.57999 -28.46,21.21 -63.73,33.75 -101.92,33.75 -16.11,0 -31.65,-2.27 -46.41,-6.44 -19.35,73.12 -85.93,127.01 -165.11,127.01 -30.71,0 -59.53,-8.15 -84.42,-22.35 -35.36,67.12 -105.74,112.89 -186.86,112.89 -96.61,0 -178,-64.92 -203.09,-153.49 -43.84,39.14 -101.64,62.95 -165.04,62.95 -58.89,0 -112.96,-20.57 -155.49,-54.87 0.24,4.42 0.36,8.87 0.36,13.35 0,136.94 -111.03,247.959991 -247.98,247.959991 -47.36,0 -91.63,-13.29 -129.27,-36.34 -64.32,138.809998 -204.78,235.150009 -367.82,235.150009 -215.665,0 -391.934,-168.510009 -404.454,-381.03 -141.281,-24.12 -248.848,-147.07 -248.848,-295.23 0,-165.47 134.141,-299.6 299.606,-299.6 2.523,0 2586.846,0 2586.846,0 l 0,1.26 c 183.4,14.66 327.67,168.01 327.67,355.17"
           style="fill:#ffffff;fill-opacity:1;fill-rule:nonzero;stroke:none"
           id="cloud" /></g></g></g></svg>